<svg xmlns="http://www.w3.org/2000/svg" viewBox="0 0 24 24" width="24" height="24">
	<defs>
		<linearGradient id="grd1" gradientUnits="userSpaceOnUse"  x1="2.33" y1="14.046" x2="29.21" y2="16.747">
			<stop offset="0" stop-color="#eb6c53"  />
			<stop offset="1" stop-color="#9934c2"  />
		</linearGradient>
	</defs>
	<style>
		tspan { white-space:pre }
		.shp0 { fill: url(#grd1) } 
	</style>
	<path id="Path-16" class="shp0" d="M10.57 16.59L8.74 14.76L11.94 11.56C12.69 10.81 12.69 9.58 11.94 8.82C11.18 8.07 9.95 8.07 9.2 8.82L4.63 13.39C2.86 15.15 2.86 18.02 4.63 19.78C6.39 21.55 9.26 21.55 11.02 19.78L20.15 10.65C21.92 8.88 21.92 6.02 20.15 4.26L19.7 3.8C18.19 2.29 15.73 2.29 14.22 3.8L12.39 1.97C14.91 -0.55 19 -0.55 21.52 1.97L21.98 2.43C24.76 5.2 24.76 9.7 21.98 12.48L12.85 21.61C10.07 24.38 5.58 24.38 2.8 21.61C0.03 18.83 0.03 14.34 2.8 11.56L7.37 7C9.13 5.23 12 5.23 13.76 7C15.53 8.76 15.53 11.62 13.76 13.39L10.57 16.59Z" />
</svg>