<svg xmlns="http://www.w3.org/2000/svg" viewBox="0 0 33 35" width="33" height="35">
	<defs>
		<linearGradient id="grd1" gradientUnits="userSpaceOnUse"  x1="10.56" y1="20.253" x2="33.517" y2="8.458">
			<stop offset="0" stop-color="#eb6c53"  />
			<stop offset="1" stop-color="#9934c2"  />
		</linearGradient>
	</defs>
	<style>
		tspan { white-space:pre }
		.shp0 { fill: url(#grd1) } 
	</style>
	<g id="Portal">
		<g id="section">
			<path id="arrow-left-2" class="shp0" d="M9.58 12.59C9.66 12.5 10 12.11 10.31 11.8C12.12 9.8 16.86 6.52 19.34 5.52C19.72 5.36 20.67 5.02 21.18 5C21.67 5 22.13 5.11 22.58 5.34C23.13 5.66 23.57 6.16 23.82 6.75C23.97 7.16 24.22 8.39 24.22 8.41C24.46 9.75 24.59 11.93 24.59 14.34C24.59 16.64 24.46 18.73 24.26 20.1C24.24 20.12 23.99 21.64 23.73 22.16C23.24 23.12 22.29 23.71 21.27 23.71L21.18 23.71C20.52 23.69 19.12 23.09 19.12 23.07C16.77 22.07 12.14 18.96 10.28 16.89C10.28 16.89 9.76 16.36 9.53 16.03C9.18 15.55 9 14.96 9 14.37C9 13.71 9.2 13.09 9.58 12.59Z" />
		</g>
	</g>
</svg>