<svg id="edit" xmlns="http://www.w3.org/2000/svg" width="18" height="18" viewBox="0 0 18 18">
  <path id="Path_4988" data-name="Path 4988" d="M19.993,18.953H14.3A1.024,1.024,0,0,0,14.3,21h5.694a1.024,1.024,0,0,0,0-2.047Z" transform="translate(-3 -3)" opacity="0.4"/>
  <path id="Path_4989" data-name="Path 4989" d="M10.309,6.9l5.4,4.36a.31.31,0,0,1,.051.429l-6.4,8.335a2.1,2.1,0,0,1-1.63.817l-3.492.043a.4.4,0,0,1-.392-.312l-.794-3.451a2.137,2.137,0,0,1,.4-1.8L9.883,6.955A.3.3,0,0,1,10.309,6.9Z" transform="translate(-3 -3)"/>
  <path id="Path_4990" data-name="Path 4990" d="M18.121,8.665l-1.04,1.3a.3.3,0,0,1-.423.048c-1.265-1.023-4.5-3.65-5.4-4.377a.308.308,0,0,1-.043-.432l1-1.246A2.572,2.572,0,0,1,15.994,3.7l1.471,1.172a3.066,3.066,0,0,1,1.143,1.752A2.406,2.406,0,0,1,18.121,8.665Z" transform="translate(-3 -3)" opacity="0.4"/>
</svg>
