<svg xmlns="http://www.w3.org/2000/svg" width="23.283" height="21.295" viewBox="0 0 23.283 21.295">
  <path id="icon" d="M11.053,20.3c-7.463,0-9.947-.978-9.947-6.765,0-5.147,6.035-9.02,9.947-9.02S21,8.383,21,13.53c0,5.787-2.484,6.765-9.948,6.765Zm1.1-2.264c.839-.014,1.572-.045,2.212-.1V13.53H12.158Zm-8.842-4.5c0,3.2,0,4.39,6.631,4.5V12.4a1.116,1.116,0,0,1,1.106-1.127h4.422A1.116,1.116,0,0,1,16.581,12.4v5.2c2.21-.6,2.21-1.847,2.21-4.069,0-3.91-5.088-6.765-7.737-6.765S3.317,9.621,3.317,13.53ZM5.526,12.4A1.106,1.106,0,1,1,6.631,13.53,1.117,1.117,0,0,1,5.526,12.4ZM.466,7.684A1.143,1.143,0,0,1,.2,6.111,14.185,14.185,0,0,1,10.985,0c.046,0,.094,0,.141,0A14.294,14.294,0,0,1,21.9,6.108a1.142,1.142,0,0,1-.254,1.574A1.092,1.092,0,0,1,20.1,7.421a12.1,12.1,0,0,0-9.051-5.164A11.993,11.993,0,0,0,2.007,7.417a1.089,1.089,0,0,1-1.541.267Z" transform="translate(0.588 0.5)" stroke="rgba(0,0,0,0)" stroke-miterlimit="10" stroke-width="1"/>
</svg>
