<svg id="Iconly_Bulk_Document" data-name="Iconly/Bulk/Document" xmlns="http://www.w3.org/2000/svg" width="18" height="20" viewBox="0 0 18 20">
  <g id="Document">
    <path id="Path" d="M4.809,0H13.19C16.23,0,18,1.78,18,4.83V15.16c0,3.1-1.77,4.84-4.81,4.84H4.809C1.72,20,0,18.26,0,15.16V4.83C0,1.78,1.72,0,4.809,0" opacity="0.4"/>
    <path id="Combined-Shape" d="M12.83,13.74H4.99a.79.79,0,0,0,0,1.57h7.84a.777.777,0,0,0,.75-.36.8.8,0,0,0,0-.84A.784.784,0,0,0,12.83,13.74ZM4.99,9.179a.781.781,0,0,0,0,1.561h7.84a.781.781,0,0,0,0-1.561ZM9.841,4.65a.785.785,0,0,0,0,1.57H12.83a.78.78,0,0,0,0-1.56V4.65Z" transform="translate(0.09)"/>
  </g>
</svg>
