<svg xmlns="http://www.w3.org/2000/svg" width="20.001" height="19.19" viewBox="0 0 20.001 19.19">
  <path id="mail" d="M15.455,11.912A3.6,3.6,0,0,0,11.717,8.37h-.075a3.554,3.554,0,0,0-3.556,3.842,3.479,3.479,0,0,0,3.547,3.733,3.722,3.722,0,0,0,3.826-3.588M11.654,6.392a5.732,5.732,0,0,1,4.021,1.733v0a.831.831,0,0,1,.816-.891h.12a.906.906,0,0,1,.895.925l0,7.9a.512.512,0,0,0,.858.452c1.268-1.3,2.785-6.7-.788-9.826A8.557,8.557,0,0,0,7.4,5.89a7.68,7.68,0,0,0-2.572,9.22,7.775,7.775,0,0,0,9.521,3.954c1.474-.6,2.155,1.4.624,2.049-2.313.986-8.752.887-11.76-4.324A9.534,9.534,0,0,1,6.683,3.873,10.518,10.518,0,0,1,19.52,5.523C22.946,9.1,22.746,15.8,19.4,18.409a2.334,2.334,0,0,1-3.749-1.694l-.016-.564a5.625,5.625,0,0,1-3.986,1.657,5.832,5.832,0,0,1-5.678-5.677A5.865,5.865,0,0,1,11.654,6.392Z" transform="translate(-2 -2.408)" fill-rule="evenodd"/>
</svg>
