<svg xmlns="http://www.w3.org/2000/svg" width="15.92" height="15.92" viewBox="0 0 15.92 15.92">
  <path id="_-Icon-Color" data-name="🔹-Icon-Color" d="M17.386,13.866l-2.251-.257a1.764,1.764,0,0,0-1.453.505l-1.631,1.631A13.333,13.333,0,0,1,6.211,9.9l1.64-1.64a1.764,1.764,0,0,0,.505-1.453L8.1,4.579A1.774,1.774,0,0,0,6.335,3.01H4.8A1.759,1.759,0,0,0,3.03,4.844,15.058,15.058,0,0,0,17.112,18.926a1.759,1.759,0,0,0,1.834-1.772V15.621A1.756,1.756,0,0,0,17.386,13.866Z" transform="translate(-3.026 -3.01)" fill="#1d1d1d" fill-rule="evenodd"/>
</svg>
