<svg xmlns="http://www.w3.org/2000/svg" viewBox="0 0 58 64" width="58" height="64">
	<defs>
		<linearGradient id="grd1" gradientUnits="userSpaceOnUse"  x1="8.65" y1="50.151" x2="86.114" y2="16.985">
			<stop offset="0" stop-color="#eb6c53"  />
			<stop offset="1" stop-color="#9934c2"  />
		</linearGradient>
	</defs>
	<style>
		tspan { white-space:pre }
		.shp0 { fill: url(#grd1) } 
		.shp1 { fill: #f9f9f9 } 
	</style>
	<g id="promotion">
		<path id="Path 12908" class="shp0" d="M34.63 9.08C31.78 6.65 27.6 6.65 24.76 9.08L21.53 11.83C21.13 12.17 20.62 12.38 20.09 12.42L15.86 12.76C12.14 13.06 9.18 16.02 8.89 19.74L8.55 23.96C8.51 24.5 8.3 25 7.95 25.41L5.2 28.63C2.78 31.48 2.78 35.66 5.2 38.5L7.95 41.73C8.3 42.13 8.51 42.64 8.55 43.17L8.89 47.4C9.18 51.12 12.14 54.08 15.86 54.37L20.09 54.71C20.62 54.75 21.13 54.96 21.53 55.31L24.76 58.06C27.6 60.48 31.78 60.48 34.63 58.06L37.85 55.31C38.26 54.96 38.76 54.75 39.3 54.71L43.52 54.37C47.24 54.08 50.2 51.12 50.5 47.4L50.84 43.17C50.88 42.64 51.09 42.13 51.43 41.73L54.18 38.5C56.61 35.66 56.61 31.48 54.18 28.63L51.43 25.41C51.09 25 50.88 24.5 50.84 23.96L50.5 19.74C50.2 16.02 47.24 13.06 43.52 12.76L39.3 12.42C38.76 12.38 38.26 12.17 37.85 11.83L34.63 9.08Z" />
		<path id="Ellipse 248" class="shp1" d="M20.81 28.5C18.71 28.5 17.01 26.79 17.01 24.69C17.01 22.59 18.71 20.89 20.81 20.89C22.92 20.89 24.62 22.59 24.62 24.69C24.62 26.79 22.92 28.5 20.81 28.5Z" />
		<path id="Ellipse 249" class="shp1" d="M38.57 46.25C36.47 46.25 34.76 44.55 34.76 42.45C34.76 40.34 36.47 38.64 38.57 38.64C40.67 38.64 42.37 40.34 42.37 42.45C42.37 44.55 40.67 46.25 38.57 46.25Z" />
		<path id="Path 12909" class="shp1" d="M39.77 21.47C40.85 22.37 40.99 23.97 40.1 25.05L23.19 45.34C22.29 46.41 20.69 46.56 19.61 45.66C18.54 44.77 18.39 43.17 19.29 42.09L36.2 21.8C37.1 20.72 38.69 20.58 39.77 21.47Z" />
	</g>
</svg>