<svg xmlns="http://www.w3.org/2000/svg" viewBox="0 0 110 56" width="110" height="56">
	<defs>
		<linearGradient id="grd1" gradientUnits="userSpaceOnUse"  x1="351.652" y1="128.486" x2="439.446" y2="90.967">
			<stop offset="0" stop-color="#eb6c53"  />
			<stop offset="1" stop-color="#9934c2"  />
		</linearGradient>
		<linearGradient id="grd2" gradientUnits="userSpaceOnUse"  x1="88.267" y1="37.434" x2="121.626" y2="23.703">
			<stop offset="0" stop-color="#eb6c53"  />
			<stop offset="1" stop-color="#9934c2"  />
		</linearGradient>
		<linearGradient id="grd3" gradientUnits="userSpaceOnUse"  x1="3.611" y1="37.434" x2="36.97" y2="23.703">
			<stop offset="0" stop-color="#eb6c53"  />
			<stop offset="1" stop-color="#9934c2"  />
		</linearGradient>
		<linearGradient id="grd4" gradientUnits="userSpaceOnUse"  x1="34.108" y1="45.203" x2="111.023" y2="13.544">
			<stop offset="0" stop-color="#eb6c53"  />
			<stop offset="1" stop-color="#9934c2"  />
		</linearGradient>
	</defs>
	<style>
		tspan { white-space:pre }
		.shp0 { fill: url(#grd1) } 
		.shp1 { fill: #ecc9d4 } 
		.shp2 { opacity: 0.4;fill: url(#grd2) } 
		.shp3 { opacity: 0.4;fill: url(#grd3) } 
		.shp4 { fill: url(#grd4) } 
	</style>
	<g id="home">
		<path id="Path 12910" class="shp0" d="M345.69 107.69C345.69 105.16 346.76 102.74 348.65 101.04L369.52 82.26C372.92 79.2 378.08 79.2 381.48 82.26L402.35 101.04C404.24 102.74 405.31 105.16 405.31 107.69L405.31 130.54C405.31 135.48 401.31 139.49 396.37 139.49L387.43 139.49L387.41 139.49L363.59 139.49L363.57 139.49L354.63 139.49C349.69 139.49 345.69 135.48 345.69 130.54L345.69 107.69Z" />
		<path id="Path 12911" class="shp1" d="M366.56 121.6C366.56 118.3 369.23 115.64 372.52 115.64L378.48 115.64C381.77 115.64 384.44 118.3 384.44 121.6L384.44 139.49L366.56 139.49L366.56 121.6Z" />
	</g>
	<path id="star" class="shp2" d="M95.08 21.27C95.82 19.14 98.84 19.14 99.58 21.27L100.7 24.51C101.03 25.45 101.9 26.09 102.9 26.11L106.32 26.18C108.58 26.22 109.51 29.09 107.71 30.45L104.98 32.52C104.19 33.12 103.85 34.15 104.14 35.1L105.13 38.38C105.79 40.54 103.35 42.31 101.5 41.02L98.69 39.07C97.87 38.5 96.79 38.5 95.97 39.07L93.16 41.02C91.31 42.31 88.87 40.54 89.52 38.38L90.51 35.1C90.8 34.15 90.47 33.12 89.68 32.52L86.95 30.45C85.15 29.09 86.08 26.22 88.33 26.18L91.76 26.11C92.75 26.09 93.63 25.45 93.96 24.51L95.08 21.27Z" />
	<path id="star" class="shp3" d="M10.43 21.27C11.17 19.14 14.18 19.14 14.92 21.27L16.04 24.51C16.37 25.45 17.25 26.09 18.24 26.11L21.67 26.18C23.92 26.22 24.85 29.09 23.06 30.45L20.33 32.52C19.53 33.12 19.2 34.15 19.49 35.1L20.48 38.38C21.13 40.54 18.69 42.31 16.84 41.02L14.03 39.07C13.21 38.5 12.13 38.5 11.31 39.07L8.5 41.02C6.65 42.31 4.21 40.54 4.87 38.38L5.86 35.1C6.15 34.15 5.81 33.12 5.02 32.52L2.29 30.45C0.49 29.09 1.42 26.22 3.68 26.18L7.1 26.11C8.1 26.09 8.97 25.45 9.3 24.51L10.43 21.27Z" />
	<path id="star" class="shp4" d="M49.82 7.94C51.53 3.03 58.47 3.03 60.18 7.94L62.77 15.4C63.53 17.57 65.55 19.04 67.84 19.09L75.74 19.25C80.94 19.35 83.08 25.96 78.94 29.1L72.65 33.87C70.82 35.26 70.05 37.63 70.71 39.83L73 47.39C74.5 52.37 68.88 56.45 64.62 53.48L58.13 48.97C56.25 47.66 53.75 47.66 51.87 48.97L45.39 53.48C41.12 56.45 35.5 52.37 37 47.39L39.29 39.83C39.95 37.63 39.18 35.26 37.35 33.87L31.06 29.1C26.92 25.96 29.06 19.35 34.26 19.25L42.16 19.09C44.45 19.04 46.47 17.57 47.23 15.4L49.82 7.94Z" />
</svg>