<svg xmlns="http://www.w3.org/2000/svg" viewBox="0 0 59 56" width="59" height="56">
	<defs>
		<linearGradient id="grd1" gradientUnits="userSpaceOnUse"  x1="322.652" y1="128.486" x2="410.446" y2="90.967">
			<stop offset="0" stop-color="#eb6c53"  />
			<stop offset="1" stop-color="#9934c2"  />
		</linearGradient>
		<linearGradient id="grd2" gradientUnits="userSpaceOnUse"  x1="41.085" y1="51.884" x2="64.035" y2="46.426">
			<stop offset="0" stop-color="#eb6c53"  />
			<stop offset="1" stop-color="#9934c2"  />
		</linearGradient>
	</defs>
	<style>
		tspan { white-space:pre }
		.shp0 { fill: url(#grd1) } 
		.shp1 { fill: #ecc9d4 } 
		.shp2 { fill: #ffb782 } 
		.shp3 { fill: #de4c3c } 
		.shp4 { fill: #7a4930 } 
		.shp5 { fill: #9e37bd } 
		.shp6 { fill: #942bb4 } 
		.shp7 { fill: #ffffff } 
		.shp8 { fill: url(#grd2) } 
		.shp9 { fill: #fdb62f } 
		.shp10 { fill: #fd7b2f } 
		.shp11 { fill: #f2a46f } 
	</style>
	<g id="home">
		<path id="Path 12910" class="shp0" d="M316.69 107.69C316.69 105.16 317.76 102.74 319.65 101.04L340.52 82.26C343.92 79.2 349.08 79.2 352.48 82.26L373.35 101.04C375.24 102.74 376.31 105.16 376.31 107.69L376.31 130.54C376.31 135.48 372.31 139.49 367.37 139.49L358.43 139.49L358.41 139.49L334.59 139.49L334.57 139.49L325.63 139.49C320.69 139.49 316.69 135.48 316.69 130.54L316.69 107.69Z" />
		<path id="Path 12911" class="shp1" d="M337.56 121.6C337.56 118.3 340.23 115.64 343.52 115.64L349.48 115.64C352.77 115.64 355.44 118.3 355.44 121.6L355.44 139.49L337.56 139.49L337.56 121.6Z" />
	</g>
	<g id="surface1">
		<path id="Path 12914" class="shp2" d="M52.05 17.53L42.99 8.46L42.99 44.83L55.11 44.83L55.11 24.9C55.11 22.13 54.01 19.48 52.05 17.53Z" />
		<path id="Path 12915" class="shp3" d="M11.97 38.2L5.12 20.42C4.43 18.64 5.32 16.63 7.11 15.94L39.43 3.49C41.22 2.81 43.22 3.69 43.91 5.48L50.76 23.26C51.44 25.04 50.55 27.05 48.77 27.74L16.45 40.19C14.66 40.87 12.66 39.98 11.97 38.2Z" />
		<path id="Path 12916" class="shp4" d="M46.38 11.88L7.62 26.91L10.2 33.61L48.96 18.59L46.38 11.88Z" />
		<path id="Path 12917" class="shp5" d="M4.89 25.77L4.89 6.72C4.89 4.81 6.44 3.26 8.35 3.26L42.99 3.26C44.9 3.26 46.45 4.81 46.45 6.72L46.45 25.77C46.45 27.69 44.9 29.24 42.99 29.24L8.35 29.24C6.44 29.24 4.89 27.69 4.89 25.77Z" />
		<path id="Path 12918" class="shp6" d="M42.99 3.26L39.31 3.26L13.33 29.24L42.99 29.24C44.9 29.24 46.45 27.69 46.45 25.77L46.45 6.72C46.45 4.81 44.9 3.26 42.99 3.26Z" />
		<path id="Path 12919" class="shp7" d="M8.35 17.11L11.82 17.11L11.82 18.85L8.35 18.85L8.35 17.11Z" />
		<path id="Path 12920" class="shp7" d="M8.35 22.31L11.82 22.31L11.82 24.04L8.35 24.04L8.35 22.31Z" />
		<path id="Path 12921" class="shp7" d="M23.94 22.31L27.4 22.31L27.4 24.04L23.94 24.04L23.94 22.31Z" />
		<path id="Path 12922" class="shp7" d="M13.55 17.11L17.01 17.11L17.01 18.85L13.55 18.85L13.55 17.11Z" />
		<path id="Path 12923" class="shp7" d="M18.74 17.11L22.21 17.11L22.21 18.85L18.74 18.85L18.74 17.11Z" />
		<path id="Path 12924" class="shp7" d="M23.94 17.11L27.4 17.11L27.4 18.85L23.94 18.85L23.94 17.11Z" />
		<path id="Path 12925" class="shp7" d="M40.39 6.72L42.12 6.72L42.12 9.32L40.39 9.32L40.39 6.72Z" />
		<path id="Path 12926" class="shp7" d="M36.93 6.72L38.66 6.72L38.66 9.32L36.93 9.32L36.93 6.72Z" />
		<path id="Path 12927" class="shp7" d="M33.46 6.72L35.2 6.72L35.2 9.32L33.46 9.32L33.46 6.72Z" />
		<path id="Path 12928" class="shp7" d="M30 6.72L31.73 6.72L31.73 9.32L30 9.32L30 6.72Z" />
		<path id="Path 12929" class="shp8" d="M39.53 44.83L55.11 44.83L55.11 53.48L39.53 53.48L39.53 44.83Z" />
		<path id="Path 12930" class="shp2" d="M36.98 18.9C35.52 17.44 33.14 17.44 31.67 18.91C30.26 20.33 30.21 22.61 31.56 24.09L38.66 31.84C36.53 35.57 36.62 40.17 38.9 43.82L39.53 44.83L50.78 44.83L50.78 32.7L36.98 18.9Z" />
		<path id="Path 12931" class="shp7" d="M42.12 47.42L43.86 47.42L43.86 49.16L42.12 49.16L42.12 47.42Z" />
		<path id="Path 12932" class="shp9" d="M8.35 12.27L8.35 8.11C8.35 7.34 8.97 6.72 9.74 6.72L13.89 6.72C14.66 6.72 15.28 7.34 15.28 8.11L15.28 12.27C15.28 13.03 14.66 13.65 13.89 13.65L9.74 13.65C8.97 13.65 8.35 13.03 8.35 12.27Z" />
		<path id="Path 12933" class="shp10" d="M8.35 9.32L10.95 9.32L10.95 11.05L8.35 11.05L8.35 9.32Z" />
		<path id="Path 12934" class="shp10" d="M12.68 9.32L15.28 9.32L15.28 11.05L12.68 11.05L12.68 9.32Z" />
		<path id="Path 12935" class="shp11" d="M49.92 32.7C49.69 32.7 49.47 32.61 49.3 32.45L45.84 28.98C45.51 28.64 45.52 28.09 45.86 27.76C46.2 27.44 46.73 27.44 47.07 27.76L50.53 31.22C50.87 31.56 50.87 32.11 50.53 32.45C50.37 32.61 50.15 32.7 49.92 32.7Z" />
	</g>
</svg>