<svg xmlns="http://www.w3.org/2000/svg" viewBox="0 0 51 62" width="51" height="62">
	<defs>
		<linearGradient id="grd1" gradientUnits="userSpaceOnUse"  x1="-301.951" y1="-127.52" x2="-247.282" y2="-143.601">
			<stop offset="0" stop-color="#eb6c53"  />
			<stop offset="1" stop-color="#9934c2"  />
		</linearGradient>
		<linearGradient id="grd2" gradientUnits="userSpaceOnUse"  x1="33.718" y1="50.419" x2="59.934" y2="39.195">
			<stop offset="0" stop-color="#eb6c53"  />
			<stop offset="1" stop-color="#9934c2"  />
		</linearGradient>
		<linearGradient id="grd3" gradientUnits="userSpaceOnUse"  x1="6.415" y1="37.128" x2="67.589" y2="10.937">
			<stop offset="0" stop-color="#eb6c53"  />
			<stop offset="1" stop-color="#9934c2"  />
		</linearGradient>
		<linearGradient id="grd4" gradientUnits="userSpaceOnUse"  x1="-73.35" y1="48.151" x2="4.114" y2="14.985">
			<stop offset="0" stop-color="#eb6c53"  />
			<stop offset="1" stop-color="#9934c2"  />
		</linearGradient>
	</defs>
	<style>
		tspan { white-space:pre }
		.shp0 { fill: url(#grd1) } 
		.shp1 { opacity: 0.302;fill: url(#grd2) } 
		.shp2 { fill: url(#grd3) } 
		.shp3 { fill: url(#grd4) } 
		.shp4 { fill: #f9f9f9 } 
	</style>
	<path id="Path 12904" class="shp0" d="M-305.07 -142.73C-304.65 -145.29 -302.57 -147.26 -299.98 -147.55L-298.97 -147.66C-291.08 -148.54 -283.12 -148.54 -275.23 -147.66L-274.22 -147.55C-271.63 -147.26 -269.56 -145.29 -269.13 -142.73C-268.34 -137.98 -268.34 -133.14 -269.13 -128.39C-269.56 -125.83 -271.63 -123.86 -274.22 -123.57L-275.23 -123.46C-283.12 -122.59 -291.08 -122.59 -298.97 -123.46L-299.98 -123.57C-302.57 -123.86 -304.65 -125.83 -305.07 -128.39C-305.87 -133.14 -305.87 -137.98 -305.07 -142.73Z" />
	<g id="Icons-/-General-/-Search">
		<path id="Path-2" class="shp1" d="M32.8 40.97C31.65 39.81 31.65 37.93 32.8 36.77C33.96 35.61 35.84 35.61 37 36.77L48.87 48.64C50.03 49.8 50.03 51.68 48.87 52.84C47.71 54 45.84 54 44.68 52.84L32.8 40.97Z" />
		<path id="Path" fill-rule="evenodd" class="shp2" d="M23.03 44.81C11.56 44.81 2.26 35.51 2.26 24.03C2.26 12.56 11.56 3.26 23.03 3.26C34.51 3.26 43.81 12.56 43.81 24.03C43.81 35.51 34.51 44.81 23.03 44.81ZM23.03 38.87C31.23 38.87 37.87 32.23 37.87 24.03C37.87 15.84 31.23 9.19 23.03 9.19C14.84 9.19 8.19 15.84 8.19 24.03C8.19 32.23 14.84 38.87 23.03 38.87Z" />
	</g>
	<g id="promotion">
		<path id="Path 12908" class="shp3" d="M-47.37 7.08C-50.22 4.65 -54.4 4.65 -57.24 7.08L-60.47 9.83C-60.87 10.17 -61.38 10.38 -61.91 10.42L-66.14 10.76C-69.86 11.06 -72.82 14.02 -73.11 17.74L-73.45 21.96C-73.49 22.5 -73.7 23 -74.05 23.41L-76.8 26.63C-79.22 29.48 -79.22 33.66 -76.8 36.5L-74.05 39.73C-73.7 40.13 -73.49 40.64 -73.45 41.17L-73.11 45.4C-72.82 49.12 -69.86 52.08 -66.14 52.37L-61.91 52.71C-61.38 52.75 -60.87 52.96 -60.47 53.31L-57.24 56.06C-54.4 58.48 -50.22 58.48 -47.37 56.06L-44.15 53.31C-43.74 52.96 -43.24 52.75 -42.7 52.71L-38.48 52.37C-34.76 52.08 -31.8 49.12 -31.5 45.4L-31.16 41.17C-31.12 40.64 -30.91 40.13 -30.57 39.73L-27.82 36.5C-25.39 33.66 -25.39 29.48 -27.82 26.63L-30.57 23.41C-30.91 23 -31.12 22.5 -31.16 21.96L-31.5 17.74C-31.8 14.02 -34.76 11.06 -38.48 10.76L-42.7 10.42C-43.24 10.38 -43.74 10.17 -44.15 9.83L-47.37 7.08Z" />
		<path id="Ellipse 248" class="shp4" d="M-61.19 26.5C-63.29 26.5 -64.99 24.79 -64.99 22.69C-64.99 20.59 -63.29 18.89 -61.19 18.89C-59.08 18.89 -57.38 20.59 -57.38 22.69C-57.38 24.79 -59.08 26.5 -61.19 26.5Z" />
		<path id="Ellipse 249" class="shp4" d="M-43.43 44.25C-45.53 44.25 -47.24 42.55 -47.24 40.45C-47.24 38.34 -45.53 36.64 -43.43 36.64C-41.33 36.64 -39.63 38.34 -39.63 40.45C-39.63 42.55 -41.33 44.25 -43.43 44.25Z" />
		<path id="Path 12909" class="shp4" d="M-42.23 19.47C-41.15 20.37 -41.01 21.97 -41.9 23.05L-58.81 43.34C-59.71 44.41 -61.31 44.56 -62.39 43.66C-63.46 42.77 -63.61 41.17 -62.71 40.09L-45.8 19.8C-44.9 18.72 -43.31 18.58 -42.23 19.47Z" />
	</g>
</svg>