<svg xmlns="http://www.w3.org/2000/svg" viewBox="0 0 17 33" width="17" height="33">
	<defs>
		<linearGradient id="grd1" gradientUnits="userSpaceOnUse"  x1="2.544" y1="25.214" x2="25.259" y2="6.786">
			<stop offset="0" stop-color="#eb6c53"  />
			<stop offset="1" stop-color="#9934c2"  />
		</linearGradient>
		<linearGradient id="grd2" gradientUnits="userSpaceOnUse"  x1="52.97" y1="21.119" x2="76.881" y2="10.881">
			<stop offset="0" stop-color="#eb6c53"  />
			<stop offset="1" stop-color="#9934c2"  />
		</linearGradient>
		<linearGradient id="grd3" gradientUnits="userSpaceOnUse"  x1="66.081" y1="8.694" x2="72.033" y2="6.995">
			<stop offset="0" stop-color="#eb6c53"  />
			<stop offset="1" stop-color="#9934c2"  />
		</linearGradient>
		<linearGradient id="grd4" gradientUnits="userSpaceOnUse"  x1="46.475" y1="26.237" x2="94.297" y2="5.763">
			<stop offset="0" stop-color="#eb6c53"  />
			<stop offset="1" stop-color="#9934c2"  />
		</linearGradient>
		<linearGradient id="grd5" gradientUnits="userSpaceOnUse"  x1="102.108" y1="26.371" x2="108.256" y2="11.893">
			<stop offset="0" stop-color="#eb6c53"  />
			<stop offset="1" stop-color="#9934c2"  />
		</linearGradient>
		<linearGradient id="grd6" gradientUnits="userSpaceOnUse"  x1="112.131" y1="26.371" x2="142.874" y2="11.893">
			<stop offset="0" stop-color="#eb6c53"  />
			<stop offset="1" stop-color="#9934c2"  />
		</linearGradient>
		<linearGradient id="grd7" gradientUnits="userSpaceOnUse"  x1="102.108" y1="4.788" x2="108.256" y2="2.156">
			<stop offset="0" stop-color="#eb6c53"  />
			<stop offset="1" stop-color="#9934c2"  />
		</linearGradient>
		<linearGradient id="grd8" gradientUnits="userSpaceOnUse"  x1="161.781" y1="26.237" x2="209.603" y2="5.763">
			<stop offset="0" stop-color="#eb6c53"  />
			<stop offset="1" stop-color="#9934c2"  />
		</linearGradient>
		<linearGradient id="grd9" gradientUnits="userSpaceOnUse"  x1="220.626" y1="25.021" x2="274.047" y2="5.487">
			<stop offset="0" stop-color="#eb6c53"  />
			<stop offset="1" stop-color="#9934c2"  />
		</linearGradient>
		<linearGradient id="grd10" gradientUnits="userSpaceOnUse"  x1="284.049" y1="23.48" x2="338.718" y2="7.399">
			<stop offset="0" stop-color="#eb6c53"  />
			<stop offset="1" stop-color="#9934c2"  />
		</linearGradient>
	</defs>
	<style>
		tspan { white-space:pre }
		.shp0 { fill: url(#grd1) } 
		.shp1 { fill: url(#grd2) } 
		.shp2 { fill: url(#grd3) } 
		.shp3 { fill: url(#grd4) } 
		.shp4 { fill: url(#grd5) } 
		.shp5 { fill: url(#grd6) } 
		.shp6 { fill: url(#grd7) } 
		.shp7 { fill: url(#grd8) } 
		.shp8 { fill: url(#grd9) } 
		.shp9 { fill: url(#grd10) } 
		.shp10 { fill: #ffffff } 
	</style>
	<g id="social">
		<path id="facebook" class="shp0" d="M9.93 7.88C9.93 6.09 11.39 4.63 13.18 4.63L14.8 4.63C15.7 4.63 16.43 3.9 16.43 3.01C16.43 2.11 15.7 1.38 14.8 1.38L13.18 1.38C9.59 1.38 6.68 4.29 6.68 7.88L6.68 11.13L2.62 11.13C1.73 11.13 1 11.85 1 12.75C1 13.65 1.73 14.38 2.62 14.38L6.68 14.38L6.68 28.99C6.68 29.89 7.41 30.62 8.31 30.62C9.21 30.62 9.93 29.89 9.93 28.99L9.93 14.38L13.99 14.38C14.89 14.38 15.62 13.65 15.62 12.75C15.62 11.85 14.89 11.13 13.99 11.13L9.93 11.13L9.93 7.88Z" />
		<g id="instagram">
			<path id="Path 12899" fill-rule="evenodd" class="shp1" d="M51.34 16C51.34 11.52 54.98 7.88 59.46 7.88C63.95 7.88 67.59 11.52 67.59 16C67.59 20.48 63.95 24.12 59.46 24.12C54.98 24.12 51.34 20.48 51.34 16ZM59.46 20.87C62.16 20.87 64.34 18.69 64.34 16C64.34 13.31 62.16 11.13 59.46 11.13C56.77 11.13 54.59 13.31 54.59 16C54.59 18.69 56.77 20.87 59.46 20.87Z" />
			<path id="Ellipse 212" class="shp2" d="M67.7 9.19C66.58 9.19 65.68 8.59 65.68 7.84C65.68 7.1 66.58 6.5 67.7 6.5C68.82 6.5 69.72 7.1 69.72 7.84C69.72 8.59 68.82 9.19 67.7 9.19Z" />
			<path id="Path 12900" fill-rule="evenodd" class="shp3" d="M65.96 -0.24C71.34 -0.24 75.71 4.12 75.71 9.5L75.71 22.5C75.71 27.88 71.34 32.24 65.96 32.24L52.97 32.24C47.59 32.24 43.22 27.88 43.22 22.5L43.22 9.5C43.22 4.12 47.59 -0.24 52.97 -0.24L65.96 -0.24ZM65.96 3.01L52.97 3.01C49.38 3.01 46.47 5.92 46.47 9.5L46.47 22.5C46.47 26.08 49.38 28.99 52.97 28.99L65.96 28.99C69.55 28.99 72.46 26.08 72.46 22.5L72.46 9.5C72.46 5.92 69.55 3.01 65.96 3.01Z" />
		</g>
		<g id="linkedin">
			<path id="Path 12901" class="shp4" d="M103.78 7.65C104.93 7.65 105.87 8.58 105.87 9.74L105.87 28.53C105.87 29.68 104.93 30.62 103.78 30.62C102.62 30.62 101.69 29.68 101.69 28.53L101.69 9.74C101.69 8.58 102.62 7.65 103.78 7.65Z" />
			<path id="Path 12902" class="shp5" d="M114.22 9.74C114.22 8.58 113.28 7.65 112.13 7.65C110.98 7.65 110.04 8.58 110.04 9.74L110.04 18.09L110.04 28.53C110.04 29.68 110.98 30.62 112.13 30.62C113.28 30.62 114.22 29.68 114.22 28.53L114.22 18.09C114.22 14.63 117.02 11.82 120.48 11.82C123.94 11.82 126.75 14.63 126.75 18.09L126.75 28.53C126.75 29.68 127.68 30.62 128.83 30.62C129.99 30.62 130.92 29.68 130.92 28.53L130.92 18.09C130.92 12.32 126.25 7.65 120.48 7.65C118.13 7.65 115.96 8.42 114.22 9.74Z" />
			<path id="Path 12903" class="shp6" d="M105.87 3.47C105.87 4.62 104.93 5.56 103.78 5.56C102.62 5.56 101.69 4.62 101.69 3.47C101.69 2.32 102.62 1.38 103.78 1.38C104.93 1.38 105.87 2.32 105.87 3.47Z" />
		</g>
		<path id="snapchat" class="shp7" d="M163.4 21.68C165.2 20.48 165.61 19.01 165.03 17.62C164.47 16.3 160.34 15.1 161.24 13.29C162.14 11.49 164.22 13.81 165.75 12.39C165.61 9.82 165.25 7.61 166.33 5.19C167.9 1.56 171.16 -0.24 174.77 -0.24C178.38 -0.24 181.64 1.56 183.21 5.19C184.29 7.61 183.93 9.82 183.79 12.39C185.32 13.81 187.4 11.49 188.3 13.29C189.21 15.1 185.07 16.3 184.52 17.62C183.93 19.01 184.34 20.48 186.14 21.68C188.86 23.5 191.01 23.22 191.01 25.06C191.01 26.83 187.08 27.22 186.14 27.37L185 28.88C184.7 29.29 184.21 29.53 183.7 29.53C181.66 29.5 180.98 29.42 179.28 30.44C177.89 31.27 176.5 32.24 174.77 32.24C173.04 32.24 171.65 31.27 170.26 30.44C168.56 29.42 167.88 29.5 165.84 29.53C165.33 29.53 164.85 29.29 164.54 28.88L163.4 27.37C162.47 27.22 158.53 26.83 158.53 25.06C158.53 23.22 160.69 23.5 163.4 21.68Z" />
		<path id="twitter" class="shp8" d="M249.84 9.07C249.8 8.67 249.75 8.34 249.71 8.11L253.13 2.98C253.34 2.66 253.33 2.24 253.09 1.93C252.86 1.62 252.45 1.5 252.09 1.62L247.33 3.21C247.08 2.83 246.71 2.34 246.21 1.84C245.2 0.83 243.63 -0.24 241.49 -0.24C239.27 -0.24 237.63 0.38 236.46 1.4C235.3 2.41 234.68 3.73 234.37 4.98C234.06 6.23 234.03 7.46 234.08 8.37C234.09 8.63 234.11 8.87 234.13 9.07C231.85 9.56 229.47 8.82 227.14 7.43C224.56 5.9 222.2 3.68 220.36 1.84C220.1 1.58 219.72 1.5 219.38 1.64C219.05 1.77 218.82 2.09 218.81 2.45C218.58 9.85 220.1 18.8 226.99 23.34C224.1 24.91 221.25 25.64 217.79 26.07C217.39 26.12 217.08 26.43 217.01 26.82C216.94 27.21 217.14 27.6 217.5 27.78C226.86 32.46 238.98 32.12 245.84 22.98C248.68 19.19 249.64 15.39 249.87 12.53C249.99 11.11 249.93 9.92 249.84 9.07Z" />
		<g id="youtube">
			<path id="Path 12904" class="shp9" d="M280.93 8.27C281.35 5.71 283.43 3.74 286.02 3.45L287.03 3.34C294.92 2.46 302.88 2.46 310.77 3.34L311.78 3.45C314.37 3.74 316.44 5.71 316.87 8.27C317.66 13.02 317.66 17.86 316.87 22.61C316.44 25.17 314.37 27.14 311.78 27.43L310.77 27.54C302.88 28.41 294.92 28.41 287.03 27.54L286.02 27.43C283.43 27.14 281.35 25.17 280.93 22.61C280.13 17.86 280.13 13.02 280.93 8.27Z" />
			<path id="Path 12905" class="shp10" d="M304.17 13.84C305.31 14.6 305.31 16.28 304.17 17.03L298.05 21.12C296.77 21.97 295.07 21.06 295.07 19.53L295.07 11.35C295.07 9.82 296.77 8.91 298.05 9.76L304.17 13.84Z" />
		</g>
	</g>
</svg>