<svg xmlns="http://www.w3.org/2000/svg" viewBox="0 0 33 32" width="33" height="32">
	<defs>
		<linearGradient id="grd1" gradientUnits="userSpaceOnUse"  x1="-96.456" y1="25.214" x2="-73.741" y2="6.786">
			<stop offset="0" stop-color="#eb6c53"  />
			<stop offset="1" stop-color="#9934c2"  />
		</linearGradient>
		<linearGradient id="grd2" gradientUnits="userSpaceOnUse"  x1="-46.03" y1="21.119" x2="-22.119" y2="10.881">
			<stop offset="0" stop-color="#eb6c53"  />
			<stop offset="1" stop-color="#9934c2"  />
		</linearGradient>
		<linearGradient id="grd3" gradientUnits="userSpaceOnUse"  x1="-32.919" y1="8.694" x2="-26.967" y2="6.995">
			<stop offset="0" stop-color="#eb6c53"  />
			<stop offset="1" stop-color="#9934c2"  />
		</linearGradient>
		<linearGradient id="grd4" gradientUnits="userSpaceOnUse"  x1="-52.525" y1="26.237" x2="-4.703" y2="5.763">
			<stop offset="0" stop-color="#eb6c53"  />
			<stop offset="1" stop-color="#9934c2"  />
		</linearGradient>
		<linearGradient id="grd5" gradientUnits="userSpaceOnUse"  x1="3.108" y1="26.371" x2="9.256" y2="11.893">
			<stop offset="0" stop-color="#eb6c53"  />
			<stop offset="1" stop-color="#9934c2"  />
		</linearGradient>
		<linearGradient id="grd6" gradientUnits="userSpaceOnUse"  x1="13.131" y1="26.371" x2="43.874" y2="11.893">
			<stop offset="0" stop-color="#eb6c53"  />
			<stop offset="1" stop-color="#9934c2"  />
		</linearGradient>
		<linearGradient id="grd7" gradientUnits="userSpaceOnUse"  x1="3.108" y1="4.788" x2="9.256" y2="2.156">
			<stop offset="0" stop-color="#eb6c53"  />
			<stop offset="1" stop-color="#9934c2"  />
		</linearGradient>
		<linearGradient id="grd8" gradientUnits="userSpaceOnUse"  x1="62.781" y1="26.237" x2="110.603" y2="5.763">
			<stop offset="0" stop-color="#eb6c53"  />
			<stop offset="1" stop-color="#9934c2"  />
		</linearGradient>
		<linearGradient id="grd9" gradientUnits="userSpaceOnUse"  x1="121.626" y1="25.021" x2="175.047" y2="5.487">
			<stop offset="0" stop-color="#eb6c53"  />
			<stop offset="1" stop-color="#9934c2"  />
		</linearGradient>
		<linearGradient id="grd10" gradientUnits="userSpaceOnUse"  x1="185.049" y1="23.48" x2="239.718" y2="7.399">
			<stop offset="0" stop-color="#eb6c53"  />
			<stop offset="1" stop-color="#9934c2"  />
		</linearGradient>
	</defs>
	<style>
		tspan { white-space:pre }
		.shp0 { fill: url(#grd1) } 
		.shp1 { fill: url(#grd2) } 
		.shp2 { fill: url(#grd3) } 
		.shp3 { fill: url(#grd4) } 
		.shp4 { fill: url(#grd5) } 
		.shp5 { fill: url(#grd6) } 
		.shp6 { fill: url(#grd7) } 
		.shp7 { fill: url(#grd8) } 
		.shp8 { fill: url(#grd9) } 
		.shp9 { fill: url(#grd10) } 
		.shp10 { fill: #ffffff } 
	</style>
	<g id="social">
		<path id="facebook" class="shp0" d="M-89.07 7.88C-89.07 6.09 -87.61 4.63 -85.82 4.63L-84.2 4.63C-83.3 4.63 -82.57 3.9 -82.57 3.01C-82.57 2.11 -83.3 1.38 -84.2 1.38L-85.82 1.38C-89.41 1.38 -92.32 4.29 -92.32 7.88L-92.32 11.13L-96.38 11.13C-97.27 11.13 -98 11.85 -98 12.75C-98 13.65 -97.27 14.38 -96.38 14.38L-92.32 14.38L-92.32 28.99C-92.32 29.89 -91.59 30.62 -90.69 30.62C-89.79 30.62 -89.07 29.89 -89.07 28.99L-89.07 14.38L-85.01 14.38C-84.11 14.38 -83.38 13.65 -83.38 12.75C-83.38 11.85 -84.11 11.13 -85.01 11.13L-89.07 11.13L-89.07 7.88Z" />
		<g id="instagram">
			<path id="Path 12899" fill-rule="evenodd" class="shp1" d="M-47.66 16C-47.66 11.52 -44.02 7.88 -39.54 7.88C-35.05 7.88 -31.41 11.52 -31.41 16C-31.41 20.48 -35.05 24.12 -39.54 24.12C-44.02 24.12 -47.66 20.48 -47.66 16ZM-39.54 20.87C-36.84 20.87 -34.66 18.69 -34.66 16C-34.66 13.31 -36.84 11.13 -39.54 11.13C-42.23 11.13 -44.41 13.31 -44.41 16C-44.41 18.69 -42.23 20.87 -39.54 20.87Z" />
			<path id="Ellipse 212" class="shp2" d="M-31.3 9.19C-32.42 9.19 -33.32 8.59 -33.32 7.84C-33.32 7.1 -32.42 6.5 -31.3 6.5C-30.18 6.5 -29.28 7.1 -29.28 7.84C-29.28 8.59 -30.18 9.19 -31.3 9.19Z" />
			<path id="Path 12900" fill-rule="evenodd" class="shp3" d="M-33.04 -0.24C-27.66 -0.24 -23.29 4.12 -23.29 9.5L-23.29 22.5C-23.29 27.88 -27.66 32.24 -33.04 32.24L-46.03 32.24C-51.41 32.24 -55.78 27.88 -55.78 22.5L-55.78 9.5C-55.78 4.12 -51.41 -0.24 -46.03 -0.24L-33.04 -0.24ZM-33.04 3.01L-46.03 3.01C-49.62 3.01 -52.53 5.92 -52.53 9.5L-52.53 22.5C-52.53 26.08 -49.62 28.99 -46.03 28.99L-33.04 28.99C-29.45 28.99 -26.54 26.08 -26.54 22.5L-26.54 9.5C-26.54 5.92 -29.45 3.01 -33.04 3.01Z" />
		</g>
		<g id="linkedin">
			<path id="Path 12901" class="shp4" d="M4.78 7.65C5.93 7.65 6.87 8.58 6.87 9.74L6.87 28.53C6.87 29.68 5.93 30.62 4.78 30.62C3.62 30.62 2.69 29.68 2.69 28.53L2.69 9.74C2.69 8.58 3.62 7.65 4.78 7.65Z" />
			<path id="Path 12902" class="shp5" d="M15.22 9.74C15.22 8.58 14.28 7.65 13.13 7.65C11.98 7.65 11.04 8.58 11.04 9.74L11.04 18.09L11.04 28.53C11.04 29.68 11.98 30.62 13.13 30.62C14.28 30.62 15.22 29.68 15.22 28.53L15.22 18.09C15.22 14.63 18.02 11.82 21.48 11.82C24.94 11.82 27.75 14.63 27.75 18.09L27.75 28.53C27.75 29.68 28.68 30.62 29.83 30.62C30.99 30.62 31.92 29.68 31.92 28.53L31.92 18.09C31.92 12.32 27.25 7.65 21.48 7.65C19.13 7.65 16.96 8.42 15.22 9.74Z" />
			<path id="Path 12903" class="shp6" d="M6.87 3.47C6.87 4.62 5.93 5.56 4.78 5.56C3.62 5.56 2.69 4.62 2.69 3.47C2.69 2.32 3.62 1.38 4.78 1.38C5.93 1.38 6.87 2.32 6.87 3.47Z" />
		</g>
		<path id="snapchat" class="shp7" d="M64.4 21.68C66.2 20.48 66.61 19.01 66.03 17.62C65.47 16.3 61.34 15.1 62.24 13.29C63.14 11.49 65.22 13.81 66.75 12.39C66.61 9.82 66.25 7.61 67.33 5.19C68.9 1.56 72.16 -0.24 75.77 -0.24C79.38 -0.24 82.64 1.56 84.21 5.19C85.29 7.61 84.93 9.82 84.79 12.39C86.32 13.81 88.4 11.49 89.3 13.29C90.21 15.1 86.07 16.3 85.52 17.62C84.93 19.01 85.34 20.48 87.14 21.68C89.86 23.5 92.01 23.22 92.01 25.06C92.01 26.83 88.08 27.22 87.14 27.37L86 28.88C85.7 29.29 85.21 29.53 84.7 29.53C82.66 29.5 81.98 29.42 80.28 30.44C78.89 31.27 77.5 32.24 75.77 32.24C74.04 32.24 72.65 31.27 71.26 30.44C69.56 29.42 68.88 29.5 66.84 29.53C66.33 29.53 65.85 29.29 65.54 28.88L64.4 27.37C63.47 27.22 59.53 26.83 59.53 25.06C59.53 23.22 61.69 23.5 64.4 21.68Z" />
		<path id="twitter" class="shp8" d="M150.84 9.07C150.8 8.67 150.75 8.34 150.71 8.11L154.13 2.98C154.34 2.66 154.33 2.24 154.09 1.93C153.86 1.62 153.45 1.5 153.09 1.62L148.33 3.21C148.08 2.83 147.71 2.34 147.21 1.84C146.2 0.83 144.63 -0.24 142.49 -0.24C140.27 -0.24 138.63 0.38 137.46 1.4C136.3 2.41 135.68 3.73 135.37 4.98C135.06 6.23 135.03 7.46 135.08 8.37C135.09 8.63 135.11 8.87 135.13 9.07C132.85 9.56 130.47 8.82 128.14 7.43C125.56 5.9 123.2 3.68 121.36 1.84C121.1 1.58 120.72 1.5 120.38 1.64C120.05 1.77 119.82 2.09 119.81 2.45C119.58 9.85 121.1 18.8 127.99 23.34C125.1 24.91 122.25 25.64 118.79 26.07C118.39 26.12 118.08 26.43 118.01 26.82C117.94 27.21 118.14 27.6 118.5 27.78C127.86 32.46 139.98 32.12 146.84 22.98C149.68 19.19 150.64 15.39 150.87 12.53C150.99 11.11 150.93 9.92 150.84 9.07Z" />
		<g id="youtube">
			<path id="Path 12904" class="shp9" d="M181.93 8.27C182.35 5.71 184.43 3.74 187.02 3.45L188.03 3.34C195.92 2.46 203.88 2.46 211.77 3.34L212.78 3.45C215.37 3.74 217.44 5.71 217.87 8.27C218.66 13.02 218.66 17.86 217.87 22.61C217.44 25.17 215.37 27.14 212.78 27.43L211.77 27.54C203.88 28.41 195.92 28.41 188.03 27.54L187.02 27.43C184.43 27.14 182.35 25.17 181.93 22.61C181.13 17.86 181.13 13.02 181.93 8.27Z" />
			<path id="Path 12905" class="shp10" d="M205.17 13.84C206.31 14.6 206.31 16.28 205.17 17.03L199.05 21.12C197.77 21.97 196.07 21.06 196.07 19.53L196.07 11.35C196.07 9.82 197.77 8.91 199.05 9.76L205.17 13.84Z" />
		</g>
	</g>
</svg>