<svg xmlns="http://www.w3.org/2000/svg" viewBox="0 0 37 36" width="37" height="36">
	<defs>
		<linearGradient id="grd1" gradientUnits="userSpaceOnUse"  x1="-37.456" y1="27.214" x2="-14.741" y2="8.786">
			<stop offset="0" stop-color="#eb6c53"  />
			<stop offset="1" stop-color="#9934c2"  />
		</linearGradient>
		<linearGradient id="grd2" gradientUnits="userSpaceOnUse"  x1="12.97" y1="23.119" x2="36.881" y2="12.881">
			<stop offset="0" stop-color="#eb6c53"  />
			<stop offset="1" stop-color="#9934c2"  />
		</linearGradient>
		<linearGradient id="grd3" gradientUnits="userSpaceOnUse"  x1="26.081" y1="10.694" x2="32.033" y2="8.995">
			<stop offset="0" stop-color="#eb6c53"  />
			<stop offset="1" stop-color="#9934c2"  />
		</linearGradient>
		<linearGradient id="grd4" gradientUnits="userSpaceOnUse"  x1="6.475" y1="28.237" x2="54.297" y2="7.763">
			<stop offset="0" stop-color="#eb6c53"  />
			<stop offset="1" stop-color="#9934c2"  />
		</linearGradient>
		<linearGradient id="grd5" gradientUnits="userSpaceOnUse"  x1="62.108" y1="28.371" x2="68.256" y2="13.893">
			<stop offset="0" stop-color="#eb6c53"  />
			<stop offset="1" stop-color="#9934c2"  />
		</linearGradient>
		<linearGradient id="grd6" gradientUnits="userSpaceOnUse"  x1="72.131" y1="28.371" x2="102.874" y2="13.893">
			<stop offset="0" stop-color="#eb6c53"  />
			<stop offset="1" stop-color="#9934c2"  />
		</linearGradient>
		<linearGradient id="grd7" gradientUnits="userSpaceOnUse"  x1="62.108" y1="6.788" x2="68.256" y2="4.156">
			<stop offset="0" stop-color="#eb6c53"  />
			<stop offset="1" stop-color="#9934c2"  />
		</linearGradient>
		<linearGradient id="grd8" gradientUnits="userSpaceOnUse"  x1="121.781" y1="28.237" x2="169.603" y2="7.763">
			<stop offset="0" stop-color="#eb6c53"  />
			<stop offset="1" stop-color="#9934c2"  />
		</linearGradient>
		<linearGradient id="grd9" gradientUnits="userSpaceOnUse"  x1="180.626" y1="27.021" x2="234.047" y2="7.487">
			<stop offset="0" stop-color="#eb6c53"  />
			<stop offset="1" stop-color="#9934c2"  />
		</linearGradient>
		<linearGradient id="grd10" gradientUnits="userSpaceOnUse"  x1="244.049" y1="25.48" x2="298.718" y2="9.399">
			<stop offset="0" stop-color="#eb6c53"  />
			<stop offset="1" stop-color="#9934c2"  />
		</linearGradient>
	</defs>
	<style>
		tspan { white-space:pre }
		.shp0 { fill: url(#grd1) } 
		.shp1 { fill: url(#grd2) } 
		.shp2 { fill: url(#grd3) } 
		.shp3 { fill: url(#grd4) } 
		.shp4 { fill: url(#grd5) } 
		.shp5 { fill: url(#grd6) } 
		.shp6 { fill: url(#grd7) } 
		.shp7 { fill: url(#grd8) } 
		.shp8 { fill: url(#grd9) } 
		.shp9 { fill: url(#grd10) } 
		.shp10 { fill: #ffffff } 
	</style>
	<g id="social">
		<path id="facebook" class="shp0" d="M-30.07 9.88C-30.07 8.09 -28.61 6.63 -26.82 6.63L-25.2 6.63C-24.3 6.63 -23.57 5.9 -23.57 5.01C-23.57 4.11 -24.3 3.38 -25.2 3.38L-26.82 3.38C-30.41 3.38 -33.32 6.29 -33.32 9.88L-33.32 13.13L-37.38 13.13C-38.27 13.13 -39 13.85 -39 14.75C-39 15.65 -38.27 16.38 -37.38 16.38L-33.32 16.38L-33.32 30.99C-33.32 31.89 -32.59 32.62 -31.69 32.62C-30.79 32.62 -30.07 31.89 -30.07 30.99L-30.07 16.38L-26.01 16.38C-25.11 16.38 -24.38 15.65 -24.38 14.75C-24.38 13.85 -25.11 13.13 -26.01 13.13L-30.07 13.13L-30.07 9.88Z" />
		<g id="instagram">
			<path id="Path 12899" fill-rule="evenodd" class="shp1" d="M11.34 18C11.34 13.52 14.98 9.88 19.46 9.88C23.95 9.88 27.59 13.52 27.59 18C27.59 22.48 23.95 26.12 19.46 26.12C14.98 26.12 11.34 22.48 11.34 18ZM19.46 22.87C22.16 22.87 24.34 20.69 24.34 18C24.34 15.31 22.16 13.13 19.46 13.13C16.77 13.13 14.59 15.31 14.59 18C14.59 20.69 16.77 22.87 19.46 22.87Z" />
			<path id="Ellipse 212" class="shp2" d="M27.7 11.19C26.58 11.19 25.68 10.59 25.68 9.84C25.68 9.1 26.58 8.5 27.7 8.5C28.82 8.5 29.72 9.1 29.72 9.84C29.72 10.59 28.82 11.19 27.7 11.19Z" />
			<path id="Path 12900" fill-rule="evenodd" class="shp3" d="M25.96 1.76C31.34 1.76 35.71 6.12 35.71 11.5L35.71 24.5C35.71 29.88 31.34 34.24 25.96 34.24L12.97 34.24C7.59 34.24 3.22 29.88 3.22 24.5L3.22 11.5C3.22 6.12 7.59 1.76 12.97 1.76L25.96 1.76ZM25.96 5.01L12.97 5.01C9.38 5.01 6.47 7.92 6.47 11.5L6.47 24.5C6.47 28.08 9.38 30.99 12.97 30.99L25.96 30.99C29.55 30.99 32.46 28.08 32.46 24.5L32.46 11.5C32.46 7.92 29.55 5.01 25.96 5.01Z" />
		</g>
		<g id="linkedin">
			<path id="Path 12901" class="shp4" d="M63.78 9.65C64.93 9.65 65.87 10.58 65.87 11.74L65.87 30.53C65.87 31.68 64.93 32.62 63.78 32.62C62.62 32.62 61.69 31.68 61.69 30.53L61.69 11.74C61.69 10.58 62.62 9.65 63.78 9.65Z" />
			<path id="Path 12902" class="shp5" d="M74.22 11.74C74.22 10.58 73.28 9.65 72.13 9.65C70.98 9.65 70.04 10.58 70.04 11.74L70.04 20.09L70.04 30.53C70.04 31.68 70.98 32.62 72.13 32.62C73.28 32.62 74.22 31.68 74.22 30.53L74.22 20.09C74.22 16.63 77.02 13.82 80.48 13.82C83.94 13.82 86.75 16.63 86.75 20.09L86.75 30.53C86.75 31.68 87.68 32.62 88.83 32.62C89.99 32.62 90.92 31.68 90.92 30.53L90.92 20.09C90.92 14.32 86.25 9.65 80.48 9.65C78.13 9.65 75.96 10.42 74.22 11.74Z" />
			<path id="Path 12903" class="shp6" d="M65.87 5.47C65.87 6.62 64.93 7.56 63.78 7.56C62.62 7.56 61.69 6.62 61.69 5.47C61.69 4.32 62.62 3.38 63.78 3.38C64.93 3.38 65.87 4.32 65.87 5.47Z" />
		</g>
		<path id="snapchat" class="shp7" d="M123.4 23.68C125.2 22.48 125.61 21.01 125.03 19.62C124.47 18.3 120.34 17.1 121.24 15.29C122.14 13.49 124.22 15.81 125.75 14.39C125.61 11.82 125.25 9.61 126.33 7.19C127.9 3.56 131.16 1.76 134.77 1.76C138.38 1.76 141.64 3.56 143.21 7.19C144.29 9.61 143.93 11.82 143.79 14.39C145.32 15.81 147.4 13.49 148.3 15.29C149.21 17.1 145.07 18.3 144.52 19.62C143.93 21.01 144.34 22.48 146.14 23.68C148.86 25.5 151.01 25.22 151.01 27.06C151.01 28.83 147.08 29.22 146.14 29.37L145 30.88C144.7 31.29 144.21 31.53 143.7 31.53C141.66 31.5 140.98 31.42 139.28 32.44C137.89 33.27 136.5 34.24 134.77 34.24C133.04 34.24 131.65 33.27 130.26 32.44C128.56 31.42 127.88 31.5 125.84 31.53C125.33 31.53 124.85 31.29 124.54 30.88L123.4 29.37C122.47 29.22 118.53 28.83 118.53 27.06C118.53 25.22 120.69 25.5 123.4 23.68Z" />
		<path id="twitter" class="shp8" d="M209.84 11.07C209.8 10.67 209.75 10.34 209.71 10.11L213.13 4.98C213.34 4.66 213.33 4.24 213.09 3.93C212.86 3.62 212.45 3.5 212.09 3.62L207.33 5.21C207.08 4.83 206.71 4.34 206.21 3.84C205.2 2.83 203.63 1.76 201.49 1.76C199.27 1.76 197.63 2.38 196.46 3.4C195.3 4.41 194.68 5.73 194.37 6.98C194.06 8.23 194.03 9.46 194.08 10.37C194.09 10.63 194.11 10.87 194.13 11.07C191.85 11.56 189.47 10.82 187.14 9.43C184.56 7.9 182.2 5.68 180.36 3.84C180.1 3.58 179.72 3.5 179.38 3.64C179.05 3.77 178.82 4.09 178.81 4.45C178.58 11.85 180.1 20.8 186.99 25.34C184.1 26.91 181.25 27.64 177.79 28.07C177.39 28.12 177.08 28.43 177.01 28.82C176.94 29.21 177.14 29.6 177.5 29.78C186.86 34.46 198.98 34.12 205.84 24.98C208.68 21.19 209.64 17.39 209.87 14.53C209.99 13.11 209.93 11.92 209.84 11.07Z" />
		<g id="youtube">
			<path id="Path 12904" class="shp9" d="M240.93 10.27C241.35 7.71 243.43 5.74 246.02 5.45L247.03 5.34C254.92 4.46 262.88 4.46 270.77 5.34L271.78 5.45C274.37 5.74 276.44 7.71 276.87 10.27C277.66 15.02 277.66 19.86 276.87 24.61C276.44 27.17 274.37 29.14 271.78 29.43L270.77 29.54C262.88 30.41 254.92 30.41 247.03 29.54L246.02 29.43C243.43 29.14 241.35 27.17 240.93 24.61C240.13 19.86 240.13 15.02 240.93 10.27Z" />
			<path id="Path 12905" class="shp10" d="M264.17 15.84C265.31 16.6 265.31 18.28 264.17 19.03L258.05 23.12C256.77 23.97 255.07 23.06 255.07 21.53L255.07 13.35C255.07 11.82 256.77 10.91 258.05 11.76L264.17 15.84Z" />
		</g>
	</g>
</svg>