<svg xmlns="http://www.w3.org/2000/svg" viewBox="0 0 30 32" width="30" height="32">
	<defs>
		<linearGradient id="grd1" gradientUnits="userSpaceOnUse"  x1="311.652" y1="116.486" x2="399.446" y2="78.967">
			<stop offset="0" stop-color="#eb6c53"  />
			<stop offset="1" stop-color="#9934c2"  />
		</linearGradient>
		<linearGradient id="grd2" gradientUnits="userSpaceOnUse"  x1="575.085" y1="1181.884" x2="598.035" y2="1176.426">
			<stop offset="0" stop-color="#eb6c53"  />
			<stop offset="1" stop-color="#9934c2"  />
		</linearGradient>
		<linearGradient id="grd3" gradientUnits="userSpaceOnUse"  x1="6.256" y1="24.535" x2="39.442" y2="7.109">
			<stop offset="0" stop-color="#eb6c53"  />
			<stop offset="1" stop-color="#9934c2"  />
		</linearGradient>
	</defs>
	<style>
		tspan { white-space:pre }
		.shp0 { fill: url(#grd1) } 
		.shp1 { fill: #ecc9d4 } 
		.shp2 { fill: #ffb782 } 
		.shp3 { fill: #de4c3c } 
		.shp4 { fill: #7a4930 } 
		.shp5 { fill: #9e37bd } 
		.shp6 { fill: #942bb4 } 
		.shp7 { fill: #ffffff } 
		.shp8 { fill: url(#grd2) } 
		.shp9 { fill: #fdb62f } 
		.shp10 { fill: #fd7b2f } 
		.shp11 { fill: #f2a46f } 
		.shp12 { fill: url(#grd3) } 
	</style>
	<g id="home">
		<path id="Path 12910" class="shp0" d="M305.69 95.69C305.69 93.16 306.76 90.74 308.65 89.04L329.52 70.26C332.92 67.2 338.08 67.2 341.48 70.26L362.35 89.04C364.24 90.74 365.31 93.16 365.31 95.69L365.31 118.54C365.31 123.48 361.31 127.49 356.37 127.49L347.43 127.49L347.41 127.49L323.59 127.49L323.57 127.49L314.63 127.49C309.69 127.49 305.69 123.48 305.69 118.54L305.69 95.69Z" />
		<path id="Path 12911" class="shp1" d="M326.56 109.6C326.56 106.3 329.23 103.64 332.52 103.64L338.48 103.64C341.77 103.64 344.44 106.3 344.44 109.6L344.44 127.49L326.56 127.49L326.56 109.6Z" />
	</g>
	<g id="surface1">
		<path id="Path 12914" class="shp2" d="M586.05 1147.53L576.99 1138.46L576.99 1174.83L589.11 1174.83L589.11 1154.9C589.11 1152.13 588.01 1149.48 586.05 1147.53Z" />
		<path id="Path 12915" class="shp3" d="M545.97 1168.2L539.12 1150.42C538.43 1148.64 539.32 1146.63 541.11 1145.94L573.43 1133.49C575.22 1132.81 577.22 1133.69 577.91 1135.48L584.76 1153.26C585.44 1155.04 584.55 1157.05 582.77 1157.74L550.45 1170.19C548.66 1170.87 546.66 1169.98 545.97 1168.2Z" />
		<path id="Path 12916" class="shp4" d="M580.38 1141.88L541.62 1156.91L544.2 1163.61L582.96 1148.59L580.38 1141.88Z" />
		<path id="Path 12917" class="shp5" d="M538.89 1155.77L538.89 1136.72C538.89 1134.81 540.44 1133.26 542.35 1133.26L576.99 1133.26C578.9 1133.26 580.45 1134.81 580.45 1136.72L580.45 1155.77C580.45 1157.69 578.9 1159.24 576.99 1159.24L542.35 1159.24C540.44 1159.24 538.89 1157.69 538.89 1155.77Z" />
		<path id="Path 12918" class="shp6" d="M576.99 1133.26L573.31 1133.26L547.33 1159.24L576.99 1159.24C578.9 1159.24 580.45 1157.69 580.45 1155.77L580.45 1136.72C580.45 1134.81 578.9 1133.26 576.99 1133.26Z" />
		<path id="Path 12919" class="shp7" d="M542.35 1147.11L545.82 1147.11L545.82 1148.85L542.35 1148.85L542.35 1147.11Z" />
		<path id="Path 12920" class="shp7" d="M542.35 1152.31L545.82 1152.31L545.82 1154.04L542.35 1154.04L542.35 1152.31Z" />
		<path id="Path 12921" class="shp7" d="M557.94 1152.31L561.4 1152.31L561.4 1154.04L557.94 1154.04L557.94 1152.31Z" />
		<path id="Path 12922" class="shp7" d="M547.55 1147.11L551.01 1147.11L551.01 1148.85L547.55 1148.85L547.55 1147.11Z" />
		<path id="Path 12923" class="shp7" d="M552.74 1147.11L556.21 1147.11L556.21 1148.85L552.74 1148.85L552.74 1147.11Z" />
		<path id="Path 12924" class="shp7" d="M557.94 1147.11L561.4 1147.11L561.4 1148.85L557.94 1148.85L557.94 1147.11Z" />
		<path id="Path 12925" class="shp7" d="M574.39 1136.72L576.12 1136.72L576.12 1139.32L574.39 1139.32L574.39 1136.72Z" />
		<path id="Path 12926" class="shp7" d="M570.93 1136.72L572.66 1136.72L572.66 1139.32L570.93 1139.32L570.93 1136.72Z" />
		<path id="Path 12927" class="shp7" d="M567.46 1136.72L569.2 1136.72L569.2 1139.32L567.46 1139.32L567.46 1136.72Z" />
		<path id="Path 12928" class="shp7" d="M564 1136.72L565.73 1136.72L565.73 1139.32L564 1139.32L564 1136.72Z" />
		<path id="Path 12929" class="shp8" d="M573.53 1174.83L589.11 1174.83L589.11 1183.48L573.53 1183.48L573.53 1174.83Z" />
		<path id="Path 12930" class="shp2" d="M570.98 1148.9C569.52 1147.44 567.14 1147.44 565.67 1148.91C564.26 1150.33 564.21 1152.61 565.56 1154.09L572.66 1161.84C570.53 1165.57 570.62 1170.17 572.9 1173.82L573.53 1174.83L584.78 1174.83L584.78 1162.7L570.98 1148.9Z" />
		<path id="Path 12931" class="shp7" d="M576.12 1177.42L577.86 1177.42L577.86 1179.16L576.12 1179.16L576.12 1177.42Z" />
		<path id="Path 12932" class="shp9" d="M542.35 1142.27L542.35 1138.11C542.35 1137.34 542.97 1136.72 543.74 1136.72L547.89 1136.72C548.66 1136.72 549.28 1137.34 549.28 1138.11L549.28 1142.27C549.28 1143.03 548.66 1143.65 547.89 1143.65L543.74 1143.65C542.97 1143.65 542.35 1143.03 542.35 1142.27Z" />
		<path id="Path 12933" class="shp10" d="M542.35 1139.32L544.95 1139.32L544.95 1141.05L542.35 1141.05L542.35 1139.32Z" />
		<path id="Path 12934" class="shp10" d="M546.68 1139.32L549.28 1139.32L549.28 1141.05L546.68 1141.05L546.68 1139.32Z" />
		<path id="Path 12935" class="shp11" d="M583.92 1162.7C583.69 1162.7 583.47 1162.61 583.3 1162.45L579.84 1158.98C579.51 1158.64 579.52 1158.09 579.86 1157.76C580.2 1157.44 580.73 1157.44 581.07 1157.76L584.53 1161.22C584.87 1161.56 584.87 1162.11 584.53 1162.45C584.37 1162.61 584.15 1162.7 583.92 1162.7Z" />
	</g>
	<path id="Path 4999" class="shp12" d="M25.83 11.43C25.71 11.51 22.78 13.13 22.78 16.73C22.92 20.84 26.48 22.28 26.54 22.28C26.48 22.36 26 24.25 24.59 26.22C23.47 27.93 22.23 29.64 20.35 29.64C18.55 29.64 17.91 28.51 15.84 28.51C13.61 28.51 12.99 29.64 11.28 29.64C9.4 29.64 8.06 27.83 6.88 26.15C5.35 23.94 4.05 20.47 4 17.15C3.97 15.38 4.31 13.65 5.17 12.18C6.38 10.12 8.54 8.73 10.9 8.68C12.71 8.62 14.32 9.93 15.42 9.93C16.48 9.93 18.46 8.68 20.7 8.68C21.66 8.68 24.24 8.98 25.83 11.43ZM15.27 8.33C14.95 6.72 15.84 5.11 16.67 4.08C17.72 2.84 19.39 2 20.84 2C20.93 3.61 20.34 5.19 19.3 6.34C18.37 7.58 16.76 8.52 15.27 8.33Z" />
</svg>