<svg xmlns="http://www.w3.org/2000/svg" viewBox="0 0 47 58" width="47" height="58">
	<defs>
		<linearGradient id="grd1" gradientUnits="userSpaceOnUse"  x1="12.123" y1="40.685" x2="36.523" y2="12.588">
			<stop offset="0" stop-color="#eb6c53"  />
			<stop offset="1" stop-color="#9934c2"  />
		</linearGradient>
		<linearGradient id="grd2" gradientUnits="userSpaceOnUse"  x1="-3.987" y1="40.892" x2="20.788" y2="12.364">
			<stop offset="0" stop-color="#eb6c53"  />
			<stop offset="1" stop-color="#9934c2"  />
		</linearGradient>
		<linearGradient id="grd3" gradientUnits="userSpaceOnUse"  x1="27.857" y1="40.892" x2="52.632" y2="12.364">
			<stop offset="0" stop-color="#eb6c53"  />
			<stop offset="1" stop-color="#9934c2"  />
		</linearGradient>
	</defs>
	<style>
		tspan { white-space:pre }
		.shp0 { fill: url(#grd1) } 
		.shp1 { fill: url(#grd2) } 
		.shp2 { fill: url(#grd3) } 
	</style>
	<g id="logo">
		<path id="Path 4941" fill-rule="evenodd" class="shp0" d="M43 26.64C43 28.96 42.6 31.16 41.76 33.22C41.69 33.43 41.61 33.64 41.52 33.85C40.93 35.22 40.22 36.47 39.35 37.61C38.82 38.37 38.21 39.08 37.54 39.74C35.87 41.42 33.91 42.73 31.63 43.72C29.34 44.71 26.91 45.18 24.32 45.18C21.74 45.18 19.3 44.71 17.02 43.72C16.9 43.66 16.79 43.62 16.68 43.55C15.4 42.99 14.24 42.31 13.18 41.49C12.44 40.98 11.75 40.39 11.1 39.74C9.43 38.07 8.1 36.11 7.13 33.85C6.14 31.6 5.64 29.19 5.64 26.64C5.64 24.09 6.14 21.67 7.13 19.41C8.1 17.17 9.43 15.21 11.1 13.53C11.73 12.89 12.44 12.3 13.16 11.78C14.22 10.97 15.4 10.28 16.68 9.73C16.79 9.65 16.9 9.62 17.02 9.56C19.3 8.57 21.74 8.07 24.32 8.07C26.91 8.07 29.34 8.57 31.63 9.56C33.91 10.53 35.87 11.86 37.54 13.53C38.23 14.22 38.83 14.94 39.39 15.7C40.22 16.84 40.95 18.08 41.52 19.41C41.63 19.66 41.73 19.9 41.82 20.15C42.6 22.21 43 24.37 43 26.64ZM39.06 27.76C39.08 27.42 39.1 27.06 39.1 26.69C39.1 26.41 39.1 26.11 39.06 25.82C38.97 24.2 38.61 22.64 37.92 21.12C37.73 20.7 37.54 20.29 37.31 19.89C36.61 18.59 35.75 17.45 34.75 16.44C33.41 15.11 31.85 14.05 30.07 13.23C28.28 12.43 26.38 12.03 24.38 12.03C22.38 12.03 20.48 12.43 18.67 13.23C18.6 13.27 18.52 13.29 18.46 13.34C17.17 13.93 16.01 14.66 14.96 15.53C14.6 15.82 14.28 16.12 13.96 16.44C12.63 17.77 11.56 19.33 10.78 21.12C9.98 22.91 9.6 24.77 9.6 26.69C9.6 28.65 9.98 30.52 10.78 32.27C11.56 34 12.63 35.54 13.96 36.89C14.28 37.21 14.62 37.54 14.98 37.82C16.03 38.7 17.19 39.42 18.48 39.99C18.52 40.03 18.58 40.05 18.64 40.07C20.42 40.85 22.33 41.24 24.32 41.24C26.32 41.24 28.22 40.85 30.01 40.07C31.8 39.29 33.36 38.22 34.73 36.89C35.73 35.88 36.59 34.76 37.27 33.52C37.52 33.12 37.73 32.71 37.92 32.27C38.57 30.84 38.95 29.34 39.06 27.76Z" />
		<g id="Group 3351">
			<path id="Path 4942" class="shp1" d="M11.16 4L22.47 26.85L11.16 49.26L5.64 49.26L16.74 26.85L5.64 4L11.16 4Z" />
			<path id="Path 4943" class="shp2" d="M43 4L31.9 26.85L43 49.26L37.49 49.26L26.17 26.85L37.49 4L43 4Z" />
		</g>
	</g>
</svg>