<svg xmlns="http://www.w3.org/2000/svg" viewBox="0 0 35 39" width="35" height="39">
	<defs>
		<linearGradient id="grd1" gradientUnits="userSpaceOnUse"  x1="-154.456" y1="28.214" x2="-131.741" y2="9.786">
			<stop offset="0" stop-color="#eb6c53"  />
			<stop offset="1" stop-color="#9934c2"  />
		</linearGradient>
		<linearGradient id="grd2" gradientUnits="userSpaceOnUse"  x1="-104.03" y1="24.119" x2="-80.119" y2="13.881">
			<stop offset="0" stop-color="#eb6c53"  />
			<stop offset="1" stop-color="#9934c2"  />
		</linearGradient>
		<linearGradient id="grd3" gradientUnits="userSpaceOnUse"  x1="-90.919" y1="11.694" x2="-84.967" y2="9.995">
			<stop offset="0" stop-color="#eb6c53"  />
			<stop offset="1" stop-color="#9934c2"  />
		</linearGradient>
		<linearGradient id="grd4" gradientUnits="userSpaceOnUse"  x1="-110.525" y1="29.237" x2="-62.703" y2="8.763">
			<stop offset="0" stop-color="#eb6c53"  />
			<stop offset="1" stop-color="#9934c2"  />
		</linearGradient>
		<linearGradient id="grd5" gradientUnits="userSpaceOnUse"  x1="-54.892" y1="29.371" x2="-48.744" y2="14.893">
			<stop offset="0" stop-color="#eb6c53"  />
			<stop offset="1" stop-color="#9934c2"  />
		</linearGradient>
		<linearGradient id="grd6" gradientUnits="userSpaceOnUse"  x1="-44.869" y1="29.371" x2="-14.126" y2="14.893">
			<stop offset="0" stop-color="#eb6c53"  />
			<stop offset="1" stop-color="#9934c2"  />
		</linearGradient>
		<linearGradient id="grd7" gradientUnits="userSpaceOnUse"  x1="-54.892" y1="7.788" x2="-48.744" y2="5.156">
			<stop offset="0" stop-color="#eb6c53"  />
			<stop offset="1" stop-color="#9934c2"  />
		</linearGradient>
		<linearGradient id="grd8" gradientUnits="userSpaceOnUse"  x1="4.781" y1="29.237" x2="52.603" y2="8.763">
			<stop offset="0" stop-color="#eb6c53"  />
			<stop offset="1" stop-color="#9934c2"  />
		</linearGradient>
		<linearGradient id="grd9" gradientUnits="userSpaceOnUse"  x1="63.626" y1="28.021" x2="117.047" y2="8.487">
			<stop offset="0" stop-color="#eb6c53"  />
			<stop offset="1" stop-color="#9934c2"  />
		</linearGradient>
		<linearGradient id="grd10" gradientUnits="userSpaceOnUse"  x1="127.049" y1="26.48" x2="181.718" y2="10.399">
			<stop offset="0" stop-color="#eb6c53"  />
			<stop offset="1" stop-color="#9934c2"  />
		</linearGradient>
	</defs>
	<style>
		tspan { white-space:pre }
		.shp0 { fill: url(#grd1) } 
		.shp1 { fill: url(#grd2) } 
		.shp2 { fill: url(#grd3) } 
		.shp3 { fill: url(#grd4) } 
		.shp4 { fill: url(#grd5) } 
		.shp5 { fill: url(#grd6) } 
		.shp6 { fill: url(#grd7) } 
		.shp7 { fill: url(#grd8) } 
		.shp8 { fill: url(#grd9) } 
		.shp9 { fill: url(#grd10) } 
		.shp10 { fill: #ffffff } 
	</style>
	<g id="social">
		<path id="facebook" class="shp0" d="M-147.07 10.88C-147.07 9.09 -145.61 7.63 -143.82 7.63L-142.2 7.63C-141.3 7.63 -140.57 6.9 -140.57 6.01C-140.57 5.11 -141.3 4.38 -142.2 4.38L-143.82 4.38C-147.41 4.38 -150.32 7.29 -150.32 10.88L-150.32 14.13L-154.38 14.13C-155.27 14.13 -156 14.85 -156 15.75C-156 16.65 -155.27 17.38 -154.38 17.38L-150.32 17.38L-150.32 31.99C-150.32 32.89 -149.59 33.62 -148.69 33.62C-147.79 33.62 -147.07 32.89 -147.07 31.99L-147.07 17.38L-143.01 17.38C-142.11 17.38 -141.38 16.65 -141.38 15.75C-141.38 14.85 -142.11 14.13 -143.01 14.13L-147.07 14.13L-147.07 10.88Z" />
		<g id="instagram">
			<path id="Path 12899" fill-rule="evenodd" class="shp1" d="M-105.66 19C-105.66 14.52 -102.02 10.88 -97.54 10.88C-93.05 10.88 -89.41 14.52 -89.41 19C-89.41 23.48 -93.05 27.12 -97.54 27.12C-102.02 27.12 -105.66 23.48 -105.66 19ZM-97.54 23.87C-94.84 23.87 -92.66 21.69 -92.66 19C-92.66 16.31 -94.84 14.13 -97.54 14.13C-100.23 14.13 -102.41 16.31 -102.41 19C-102.41 21.69 -100.23 23.87 -97.54 23.87Z" />
			<path id="Ellipse 212" class="shp2" d="M-89.3 12.19C-90.42 12.19 -91.32 11.59 -91.32 10.84C-91.32 10.1 -90.42 9.5 -89.3 9.5C-88.18 9.5 -87.28 10.1 -87.28 10.84C-87.28 11.59 -88.18 12.19 -89.3 12.19Z" />
			<path id="Path 12900" fill-rule="evenodd" class="shp3" d="M-91.04 2.76C-85.66 2.76 -81.29 7.12 -81.29 12.5L-81.29 25.5C-81.29 30.88 -85.66 35.24 -91.04 35.24L-104.03 35.24C-109.41 35.24 -113.78 30.88 -113.78 25.5L-113.78 12.5C-113.78 7.12 -109.41 2.76 -104.03 2.76L-91.04 2.76ZM-91.04 6.01L-104.03 6.01C-107.62 6.01 -110.53 8.92 -110.53 12.5L-110.53 25.5C-110.53 29.08 -107.62 31.99 -104.03 31.99L-91.04 31.99C-87.45 31.99 -84.54 29.08 -84.54 25.5L-84.54 12.5C-84.54 8.92 -87.45 6.01 -91.04 6.01Z" />
		</g>
		<g id="linkedin">
			<path id="Path 12901" class="shp4" d="M-53.22 10.65C-52.07 10.65 -51.13 11.58 -51.13 12.74L-51.13 31.53C-51.13 32.68 -52.07 33.62 -53.22 33.62C-54.38 33.62 -55.31 32.68 -55.31 31.53L-55.31 12.74C-55.31 11.58 -54.38 10.65 -53.22 10.65Z" />
			<path id="Path 12902" class="shp5" d="M-42.78 12.74C-42.78 11.58 -43.72 10.65 -44.87 10.65C-46.02 10.65 -46.96 11.58 -46.96 12.74L-46.96 21.09L-46.96 31.53C-46.96 32.68 -46.02 33.62 -44.87 33.62C-43.72 33.62 -42.78 32.68 -42.78 31.53L-42.78 21.09C-42.78 17.63 -39.98 14.82 -36.52 14.82C-33.06 14.82 -30.25 17.63 -30.25 21.09L-30.25 31.53C-30.25 32.68 -29.32 33.62 -28.17 33.62C-27.01 33.62 -26.08 32.68 -26.08 31.53L-26.08 21.09C-26.08 15.32 -30.75 10.65 -36.52 10.65C-38.87 10.65 -41.04 11.42 -42.78 12.74Z" />
			<path id="Path 12903" class="shp6" d="M-51.13 6.47C-51.13 7.62 -52.07 8.56 -53.22 8.56C-54.38 8.56 -55.31 7.62 -55.31 6.47C-55.31 5.32 -54.38 4.38 -53.22 4.38C-52.07 4.38 -51.13 5.32 -51.13 6.47Z" />
		</g>
		<path id="snapchat" class="shp7" d="M6.4 24.68C8.2 23.48 8.61 22.01 8.03 20.62C7.47 19.3 3.34 18.1 4.24 16.29C5.14 14.49 7.22 16.81 8.75 15.39C8.61 12.82 8.25 10.61 9.33 8.19C10.9 4.56 14.16 2.76 17.77 2.76C21.38 2.76 24.64 4.56 26.21 8.19C27.29 10.61 26.93 12.82 26.79 15.39C28.32 16.81 30.4 14.49 31.3 16.29C32.21 18.1 28.07 19.3 27.52 20.62C26.93 22.01 27.34 23.48 29.14 24.68C31.86 26.5 34.01 26.22 34.01 28.06C34.01 29.83 30.08 30.22 29.14 30.37L28 31.88C27.7 32.29 27.21 32.53 26.7 32.53C24.66 32.5 23.98 32.42 22.28 33.44C20.89 34.27 19.5 35.24 17.77 35.24C16.04 35.24 14.65 34.27 13.26 33.44C11.56 32.42 10.88 32.5 8.84 32.53C8.33 32.53 7.85 32.29 7.54 31.88L6.4 30.37C5.47 30.22 1.53 29.83 1.53 28.06C1.53 26.22 3.69 26.5 6.4 24.68Z" />
		<path id="twitter" class="shp8" d="M92.84 12.07C92.8 11.67 92.75 11.34 92.71 11.11L96.13 5.98C96.34 5.66 96.33 5.24 96.09 4.93C95.86 4.62 95.45 4.5 95.09 4.62L90.33 6.21C90.08 5.83 89.71 5.34 89.21 4.84C88.2 3.83 86.63 2.76 84.49 2.76C82.27 2.76 80.63 3.38 79.46 4.4C78.3 5.41 77.68 6.73 77.37 7.98C77.06 9.23 77.03 10.46 77.08 11.37C77.09 11.63 77.11 11.87 77.13 12.07C74.85 12.56 72.47 11.82 70.14 10.43C67.56 8.9 65.2 6.68 63.36 4.84C63.1 4.58 62.72 4.5 62.38 4.64C62.05 4.77 61.82 5.09 61.81 5.45C61.58 12.85 63.1 21.8 69.99 26.34C67.1 27.91 64.25 28.64 60.79 29.07C60.39 29.12 60.08 29.43 60.01 29.82C59.94 30.21 60.14 30.6 60.5 30.78C69.86 35.46 81.98 35.12 88.84 25.98C91.68 22.19 92.64 18.39 92.87 15.53C92.99 14.11 92.93 12.92 92.84 12.07Z" />
		<g id="youtube">
			<path id="Path 12904" class="shp9" d="M123.93 11.27C124.35 8.71 126.43 6.74 129.02 6.45L130.03 6.34C137.92 5.46 145.88 5.46 153.77 6.34L154.78 6.45C157.37 6.74 159.44 8.71 159.87 11.27C160.66 16.02 160.66 20.86 159.87 25.61C159.44 28.17 157.37 30.14 154.78 30.43L153.77 30.54C145.88 31.41 137.92 31.41 130.03 30.54L129.02 30.43C126.43 30.14 124.35 28.17 123.93 25.61C123.13 20.86 123.13 16.02 123.93 11.27Z" />
			<path id="Path 12905" class="shp10" d="M147.17 16.84C148.31 17.6 148.31 19.28 147.17 20.03L141.05 24.12C139.77 24.97 138.07 24.06 138.07 22.53L138.07 14.35C138.07 12.82 139.77 11.91 141.05 12.76L147.17 16.84Z" />
		</g>
	</g>
</svg>