<svg xmlns="http://www.w3.org/2000/svg" viewBox="0 0 43 34" width="43" height="34">
	<defs>
		<linearGradient id="grd1" gradientUnits="userSpaceOnUse"  x1="-210.456" y1="26.214" x2="-187.741" y2="7.786">
			<stop offset="0" stop-color="#eb6c53"  />
			<stop offset="1" stop-color="#9934c2"  />
		</linearGradient>
		<linearGradient id="grd2" gradientUnits="userSpaceOnUse"  x1="-160.03" y1="22.119" x2="-136.119" y2="11.881">
			<stop offset="0" stop-color="#eb6c53"  />
			<stop offset="1" stop-color="#9934c2"  />
		</linearGradient>
		<linearGradient id="grd3" gradientUnits="userSpaceOnUse"  x1="-146.919" y1="9.694" x2="-140.967" y2="7.995">
			<stop offset="0" stop-color="#eb6c53"  />
			<stop offset="1" stop-color="#9934c2"  />
		</linearGradient>
		<linearGradient id="grd4" gradientUnits="userSpaceOnUse"  x1="-166.525" y1="27.237" x2="-118.703" y2="6.763">
			<stop offset="0" stop-color="#eb6c53"  />
			<stop offset="1" stop-color="#9934c2"  />
		</linearGradient>
		<linearGradient id="grd5" gradientUnits="userSpaceOnUse"  x1="-110.892" y1="27.371" x2="-104.744" y2="12.893">
			<stop offset="0" stop-color="#eb6c53"  />
			<stop offset="1" stop-color="#9934c2"  />
		</linearGradient>
		<linearGradient id="grd6" gradientUnits="userSpaceOnUse"  x1="-100.869" y1="27.371" x2="-70.126" y2="12.893">
			<stop offset="0" stop-color="#eb6c53"  />
			<stop offset="1" stop-color="#9934c2"  />
		</linearGradient>
		<linearGradient id="grd7" gradientUnits="userSpaceOnUse"  x1="-110.892" y1="5.788" x2="-104.744" y2="3.156">
			<stop offset="0" stop-color="#eb6c53"  />
			<stop offset="1" stop-color="#9934c2"  />
		</linearGradient>
		<linearGradient id="grd8" gradientUnits="userSpaceOnUse"  x1="-51.219" y1="27.237" x2="-3.397" y2="6.763">
			<stop offset="0" stop-color="#eb6c53"  />
			<stop offset="1" stop-color="#9934c2"  />
		</linearGradient>
		<linearGradient id="grd9" gradientUnits="userSpaceOnUse"  x1="7.626" y1="26.021" x2="61.047" y2="6.487">
			<stop offset="0" stop-color="#eb6c53"  />
			<stop offset="1" stop-color="#9934c2"  />
		</linearGradient>
		<linearGradient id="grd10" gradientUnits="userSpaceOnUse"  x1="71.049" y1="24.48" x2="125.718" y2="8.399">
			<stop offset="0" stop-color="#eb6c53"  />
			<stop offset="1" stop-color="#9934c2"  />
		</linearGradient>
	</defs>
	<style>
		tspan { white-space:pre }
		.shp0 { fill: url(#grd1) } 
		.shp1 { fill: url(#grd2) } 
		.shp2 { fill: url(#grd3) } 
		.shp3 { fill: url(#grd4) } 
		.shp4 { fill: url(#grd5) } 
		.shp5 { fill: url(#grd6) } 
		.shp6 { fill: url(#grd7) } 
		.shp7 { fill: url(#grd8) } 
		.shp8 { fill: url(#grd9) } 
		.shp9 { fill: url(#grd10) } 
		.shp10 { fill: #ffffff } 
	</style>
	<g id="social">
		<path id="facebook" class="shp0" d="M-203.07 8.88C-203.07 7.09 -201.61 5.63 -199.82 5.63L-198.2 5.63C-197.3 5.63 -196.57 4.9 -196.57 4.01C-196.57 3.11 -197.3 2.38 -198.2 2.38L-199.82 2.38C-203.41 2.38 -206.32 5.29 -206.32 8.88L-206.32 12.13L-210.38 12.13C-211.27 12.13 -212 12.85 -212 13.75C-212 14.65 -211.27 15.38 -210.38 15.38L-206.32 15.38L-206.32 29.99C-206.32 30.89 -205.59 31.62 -204.69 31.62C-203.79 31.62 -203.07 30.89 -203.07 29.99L-203.07 15.38L-199.01 15.38C-198.11 15.38 -197.38 14.65 -197.38 13.75C-197.38 12.85 -198.11 12.13 -199.01 12.13L-203.07 12.13L-203.07 8.88Z" />
		<g id="instagram">
			<path id="Path 12899" fill-rule="evenodd" class="shp1" d="M-161.66 17C-161.66 12.52 -158.02 8.88 -153.54 8.88C-149.05 8.88 -145.41 12.52 -145.41 17C-145.41 21.48 -149.05 25.12 -153.54 25.12C-158.02 25.12 -161.66 21.48 -161.66 17ZM-153.54 21.87C-150.84 21.87 -148.66 19.69 -148.66 17C-148.66 14.31 -150.84 12.13 -153.54 12.13C-156.23 12.13 -158.41 14.31 -158.41 17C-158.41 19.69 -156.23 21.87 -153.54 21.87Z" />
			<path id="Ellipse 212" class="shp2" d="M-145.3 10.19C-146.42 10.19 -147.32 9.59 -147.32 8.84C-147.32 8.1 -146.42 7.5 -145.3 7.5C-144.18 7.5 -143.28 8.1 -143.28 8.84C-143.28 9.59 -144.18 10.19 -145.3 10.19Z" />
			<path id="Path 12900" fill-rule="evenodd" class="shp3" d="M-147.04 0.76C-141.66 0.76 -137.29 5.12 -137.29 10.5L-137.29 23.5C-137.29 28.88 -141.66 33.24 -147.04 33.24L-160.03 33.24C-165.41 33.24 -169.78 28.88 -169.78 23.5L-169.78 10.5C-169.78 5.12 -165.41 0.76 -160.03 0.76L-147.04 0.76ZM-147.04 4.01L-160.03 4.01C-163.62 4.01 -166.53 6.92 -166.53 10.5L-166.53 23.5C-166.53 27.08 -163.62 29.99 -160.03 29.99L-147.04 29.99C-143.45 29.99 -140.54 27.08 -140.54 23.5L-140.54 10.5C-140.54 6.92 -143.45 4.01 -147.04 4.01Z" />
		</g>
		<g id="linkedin">
			<path id="Path 12901" class="shp4" d="M-109.22 8.65C-108.07 8.65 -107.13 9.58 -107.13 10.74L-107.13 29.53C-107.13 30.68 -108.07 31.62 -109.22 31.62C-110.38 31.62 -111.31 30.68 -111.31 29.53L-111.31 10.74C-111.31 9.58 -110.38 8.65 -109.22 8.65Z" />
			<path id="Path 12902" class="shp5" d="M-98.78 10.74C-98.78 9.58 -99.72 8.65 -100.87 8.65C-102.02 8.65 -102.96 9.58 -102.96 10.74L-102.96 19.09L-102.96 29.53C-102.96 30.68 -102.02 31.62 -100.87 31.62C-99.72 31.62 -98.78 30.68 -98.78 29.53L-98.78 19.09C-98.78 15.63 -95.98 12.82 -92.52 12.82C-89.06 12.82 -86.25 15.63 -86.25 19.09L-86.25 29.53C-86.25 30.68 -85.32 31.62 -84.17 31.62C-83.01 31.62 -82.08 30.68 -82.08 29.53L-82.08 19.09C-82.08 13.32 -86.75 8.65 -92.52 8.65C-94.87 8.65 -97.04 9.42 -98.78 10.74Z" />
			<path id="Path 12903" class="shp6" d="M-107.13 4.47C-107.13 5.62 -108.07 6.56 -109.22 6.56C-110.38 6.56 -111.31 5.62 -111.31 4.47C-111.31 3.32 -110.38 2.38 -109.22 2.38C-108.07 2.38 -107.13 3.32 -107.13 4.47Z" />
		</g>
		<path id="snapchat" class="shp7" d="M-49.6 22.68C-47.8 21.48 -47.39 20.01 -47.97 18.62C-48.53 17.3 -52.66 16.1 -51.76 14.29C-50.86 12.49 -48.78 14.81 -47.25 13.39C-47.39 10.82 -47.75 8.61 -46.67 6.19C-45.1 2.56 -41.84 0.76 -38.23 0.76C-34.62 0.76 -31.36 2.56 -29.79 6.19C-28.71 8.61 -29.07 10.82 -29.21 13.39C-27.68 14.81 -25.6 12.49 -24.7 14.29C-23.79 16.1 -27.93 17.3 -28.48 18.62C-29.07 20.01 -28.66 21.48 -26.86 22.68C-24.14 24.5 -21.99 24.22 -21.99 26.06C-21.99 27.83 -25.92 28.22 -26.86 28.37L-28 29.88C-28.3 30.29 -28.79 30.53 -29.3 30.53C-31.34 30.5 -32.02 30.42 -33.72 31.44C-35.11 32.27 -36.5 33.24 -38.23 33.24C-39.96 33.24 -41.35 32.27 -42.74 31.44C-44.44 30.42 -45.12 30.5 -47.16 30.53C-47.67 30.53 -48.15 30.29 -48.46 29.88L-49.6 28.37C-50.53 28.22 -54.47 27.83 -54.47 26.06C-54.47 24.22 -52.31 24.5 -49.6 22.68Z" />
		<path id="twitter" class="shp8" d="M36.84 10.07C36.8 9.67 36.75 9.34 36.71 9.11L40.13 3.98C40.34 3.66 40.33 3.24 40.09 2.93C39.86 2.62 39.45 2.5 39.09 2.62L34.33 4.21C34.08 3.83 33.71 3.34 33.21 2.84C32.2 1.83 30.63 0.76 28.49 0.76C26.27 0.76 24.63 1.38 23.46 2.4C22.3 3.41 21.68 4.73 21.37 5.98C21.06 7.23 21.03 8.46 21.08 9.37C21.09 9.63 21.11 9.87 21.13 10.07C18.85 10.56 16.47 9.82 14.14 8.43C11.56 6.9 9.2 4.68 7.36 2.84C7.1 2.58 6.72 2.5 6.38 2.64C6.05 2.77 5.82 3.09 5.81 3.45C5.58 10.85 7.1 19.8 13.99 24.34C11.1 25.91 8.25 26.64 4.79 27.07C4.39 27.12 4.08 27.43 4.01 27.82C3.94 28.21 4.14 28.6 4.5 28.78C13.86 33.46 25.98 33.12 32.84 23.98C35.68 20.19 36.64 16.39 36.87 13.53C36.99 12.11 36.93 10.92 36.84 10.07Z" />
		<g id="youtube">
			<path id="Path 12904" class="shp9" d="M67.93 9.27C68.35 6.71 70.43 4.74 73.02 4.45L74.03 4.34C81.92 3.46 89.88 3.46 97.77 4.34L98.78 4.45C101.37 4.74 103.44 6.71 103.87 9.27C104.66 14.02 104.66 18.86 103.87 23.61C103.44 26.17 101.37 28.14 98.78 28.43L97.77 28.54C89.88 29.41 81.92 29.41 74.03 28.54L73.02 28.43C70.43 28.14 68.35 26.17 67.93 23.61C67.13 18.86 67.13 14.02 67.93 9.27Z" />
			<path id="Path 12905" class="shp10" d="M91.17 14.84C92.31 15.6 92.31 17.28 91.17 18.03L85.05 22.12C83.77 22.97 82.07 22.06 82.07 20.53L82.07 12.35C82.07 10.82 83.77 9.91 85.05 10.76L91.17 14.84Z" />
		</g>
	</g>
</svg>