<svg xmlns="http://www.w3.org/2000/svg" viewBox="0 0 41 28" width="41" height="28">
	<defs>
		<linearGradient id="grd1" gradientUnits="userSpaceOnUse"  x1="-275.456" y1="24.214" x2="-252.741" y2="5.786">
			<stop offset="0" stop-color="#eb6c53"  />
			<stop offset="1" stop-color="#9934c2"  />
		</linearGradient>
		<linearGradient id="grd2" gradientUnits="userSpaceOnUse"  x1="-225.03" y1="20.119" x2="-201.119" y2="9.881">
			<stop offset="0" stop-color="#eb6c53"  />
			<stop offset="1" stop-color="#9934c2"  />
		</linearGradient>
		<linearGradient id="grd3" gradientUnits="userSpaceOnUse"  x1="-211.919" y1="7.694" x2="-205.967" y2="5.995">
			<stop offset="0" stop-color="#eb6c53"  />
			<stop offset="1" stop-color="#9934c2"  />
		</linearGradient>
		<linearGradient id="grd4" gradientUnits="userSpaceOnUse"  x1="-231.525" y1="25.237" x2="-183.703" y2="4.763">
			<stop offset="0" stop-color="#eb6c53"  />
			<stop offset="1" stop-color="#9934c2"  />
		</linearGradient>
		<linearGradient id="grd5" gradientUnits="userSpaceOnUse"  x1="-175.892" y1="25.371" x2="-169.744" y2="10.893">
			<stop offset="0" stop-color="#eb6c53"  />
			<stop offset="1" stop-color="#9934c2"  />
		</linearGradient>
		<linearGradient id="grd6" gradientUnits="userSpaceOnUse"  x1="-165.869" y1="25.371" x2="-135.126" y2="10.893">
			<stop offset="0" stop-color="#eb6c53"  />
			<stop offset="1" stop-color="#9934c2"  />
		</linearGradient>
		<linearGradient id="grd7" gradientUnits="userSpaceOnUse"  x1="-175.892" y1="3.788" x2="-169.744" y2="1.156">
			<stop offset="0" stop-color="#eb6c53"  />
			<stop offset="1" stop-color="#9934c2"  />
		</linearGradient>
		<linearGradient id="grd8" gradientUnits="userSpaceOnUse"  x1="-116.219" y1="25.237" x2="-68.397" y2="4.763">
			<stop offset="0" stop-color="#eb6c53"  />
			<stop offset="1" stop-color="#9934c2"  />
		</linearGradient>
		<linearGradient id="grd9" gradientUnits="userSpaceOnUse"  x1="-57.374" y1="24.021" x2="-3.953" y2="4.487">
			<stop offset="0" stop-color="#eb6c53"  />
			<stop offset="1" stop-color="#9934c2"  />
		</linearGradient>
		<linearGradient id="grd10" gradientUnits="userSpaceOnUse"  x1="6.049" y1="22.48" x2="60.718" y2="6.399">
			<stop offset="0" stop-color="#eb6c53"  />
			<stop offset="1" stop-color="#9934c2"  />
		</linearGradient>
	</defs>
	<style>
		tspan { white-space:pre }
		.shp0 { fill: url(#grd1) } 
		.shp1 { fill: url(#grd2) } 
		.shp2 { fill: url(#grd3) } 
		.shp3 { fill: url(#grd4) } 
		.shp4 { fill: url(#grd5) } 
		.shp5 { fill: url(#grd6) } 
		.shp6 { fill: url(#grd7) } 
		.shp7 { fill: url(#grd8) } 
		.shp8 { fill: url(#grd9) } 
		.shp9 { fill: url(#grd10) } 
		.shp10 { fill: #ffffff } 
	</style>
	<g id="social">
		<path id="facebook" class="shp0" d="M-268.07 6.88C-268.07 5.09 -266.61 3.63 -264.82 3.63L-263.2 3.63C-262.3 3.63 -261.57 2.9 -261.57 2.01C-261.57 1.11 -262.3 0.38 -263.2 0.38L-264.82 0.38C-268.41 0.38 -271.32 3.29 -271.32 6.88L-271.32 10.13L-275.38 10.13C-276.27 10.13 -277 10.85 -277 11.75C-277 12.65 -276.27 13.38 -275.38 13.38L-271.32 13.38L-271.32 27.99C-271.32 28.89 -270.59 29.62 -269.69 29.62C-268.79 29.62 -268.07 28.89 -268.07 27.99L-268.07 13.38L-264.01 13.38C-263.11 13.38 -262.38 12.65 -262.38 11.75C-262.38 10.85 -263.11 10.13 -264.01 10.13L-268.07 10.13L-268.07 6.88Z" />
		<g id="instagram">
			<path id="Path 12899" fill-rule="evenodd" class="shp1" d="M-226.66 15C-226.66 10.52 -223.02 6.88 -218.54 6.88C-214.05 6.88 -210.41 10.52 -210.41 15C-210.41 19.48 -214.05 23.12 -218.54 23.12C-223.02 23.12 -226.66 19.48 -226.66 15ZM-218.54 19.87C-215.84 19.87 -213.66 17.69 -213.66 15C-213.66 12.31 -215.84 10.13 -218.54 10.13C-221.23 10.13 -223.41 12.31 -223.41 15C-223.41 17.69 -221.23 19.87 -218.54 19.87Z" />
			<path id="Ellipse 212" class="shp2" d="M-210.3 8.19C-211.42 8.19 -212.32 7.59 -212.32 6.84C-212.32 6.1 -211.42 5.5 -210.3 5.5C-209.18 5.5 -208.28 6.1 -208.28 6.84C-208.28 7.59 -209.18 8.19 -210.3 8.19Z" />
			<path id="Path 12900" fill-rule="evenodd" class="shp3" d="M-212.04 -1.24C-206.66 -1.24 -202.29 3.12 -202.29 8.5L-202.29 21.5C-202.29 26.88 -206.66 31.24 -212.04 31.24L-225.03 31.24C-230.41 31.24 -234.78 26.88 -234.78 21.5L-234.78 8.5C-234.78 3.12 -230.41 -1.24 -225.03 -1.24L-212.04 -1.24ZM-212.04 2.01L-225.03 2.01C-228.62 2.01 -231.53 4.92 -231.53 8.5L-231.53 21.5C-231.53 25.08 -228.62 27.99 -225.03 27.99L-212.04 27.99C-208.45 27.99 -205.54 25.08 -205.54 21.5L-205.54 8.5C-205.54 4.92 -208.45 2.01 -212.04 2.01Z" />
		</g>
		<g id="linkedin">
			<path id="Path 12901" class="shp4" d="M-174.22 6.65C-173.07 6.65 -172.13 7.58 -172.13 8.74L-172.13 27.53C-172.13 28.68 -173.07 29.62 -174.22 29.62C-175.38 29.62 -176.31 28.68 -176.31 27.53L-176.31 8.74C-176.31 7.58 -175.38 6.65 -174.22 6.65Z" />
			<path id="Path 12902" class="shp5" d="M-163.78 8.74C-163.78 7.58 -164.72 6.65 -165.87 6.65C-167.02 6.65 -167.96 7.58 -167.96 8.74L-167.96 17.09L-167.96 27.53C-167.96 28.68 -167.02 29.62 -165.87 29.62C-164.72 29.62 -163.78 28.68 -163.78 27.53L-163.78 17.09C-163.78 13.63 -160.98 10.82 -157.52 10.82C-154.06 10.82 -151.25 13.63 -151.25 17.09L-151.25 27.53C-151.25 28.68 -150.32 29.62 -149.17 29.62C-148.01 29.62 -147.08 28.68 -147.08 27.53L-147.08 17.09C-147.08 11.32 -151.75 6.65 -157.52 6.65C-159.87 6.65 -162.04 7.42 -163.78 8.74Z" />
			<path id="Path 12903" class="shp6" d="M-172.13 2.47C-172.13 3.62 -173.07 4.56 -174.22 4.56C-175.38 4.56 -176.31 3.62 -176.31 2.47C-176.31 1.32 -175.38 0.38 -174.22 0.38C-173.07 0.38 -172.13 1.32 -172.13 2.47Z" />
		</g>
		<path id="snapchat" class="shp7" d="M-114.6 20.68C-112.8 19.48 -112.39 18.01 -112.97 16.62C-113.53 15.3 -117.66 14.1 -116.76 12.29C-115.86 10.49 -113.78 12.81 -112.25 11.39C-112.39 8.82 -112.75 6.61 -111.67 4.19C-110.1 0.56 -106.84 -1.24 -103.23 -1.24C-99.62 -1.24 -96.36 0.56 -94.79 4.19C-93.71 6.61 -94.07 8.82 -94.21 11.39C-92.68 12.81 -90.6 10.49 -89.7 12.29C-88.79 14.1 -92.93 15.3 -93.48 16.62C-94.07 18.01 -93.66 19.48 -91.86 20.68C-89.14 22.5 -86.99 22.22 -86.99 24.06C-86.99 25.83 -90.92 26.22 -91.86 26.37L-93 27.88C-93.3 28.29 -93.79 28.53 -94.3 28.53C-96.34 28.5 -97.02 28.42 -98.72 29.44C-100.11 30.27 -101.5 31.24 -103.23 31.24C-104.96 31.24 -106.35 30.27 -107.74 29.44C-109.44 28.42 -110.12 28.5 -112.16 28.53C-112.67 28.53 -113.15 28.29 -113.46 27.88L-114.6 26.37C-115.53 26.22 -119.47 25.83 -119.47 24.06C-119.47 22.22 -117.31 22.5 -114.6 20.68Z" />
		<path id="twitter" class="shp8" d="M-28.16 8.07C-28.2 7.67 -28.25 7.34 -28.29 7.11L-24.87 1.98C-24.66 1.66 -24.67 1.24 -24.91 0.93C-25.14 0.62 -25.55 0.5 -25.91 0.62L-30.67 2.21C-30.92 1.83 -31.29 1.34 -31.79 0.84C-32.8 -0.17 -34.37 -1.24 -36.51 -1.24C-38.73 -1.24 -40.37 -0.62 -41.54 0.4C-42.7 1.41 -43.32 2.73 -43.63 3.98C-43.94 5.23 -43.97 6.46 -43.92 7.37C-43.91 7.63 -43.89 7.87 -43.87 8.07C-46.15 8.56 -48.53 7.82 -50.86 6.43C-53.44 4.9 -55.8 2.68 -57.64 0.84C-57.9 0.58 -58.28 0.5 -58.62 0.64C-58.95 0.77 -59.18 1.09 -59.19 1.45C-59.42 8.85 -57.9 17.8 -51.01 22.34C-53.9 23.91 -56.75 24.64 -60.21 25.07C-60.61 25.12 -60.92 25.43 -60.99 25.82C-61.06 26.21 -60.86 26.6 -60.5 26.78C-51.14 31.46 -39.02 31.12 -32.16 21.98C-29.32 18.19 -28.36 14.39 -28.13 11.53C-28.01 10.11 -28.07 8.92 -28.16 8.07Z" />
		<g id="youtube">
			<path id="Path 12904" class="shp9" d="M2.93 7.27C3.35 4.71 5.43 2.74 8.02 2.45L9.03 2.34C16.92 1.46 24.88 1.46 32.77 2.34L33.78 2.45C36.37 2.74 38.44 4.71 38.87 7.27C39.66 12.02 39.66 16.86 38.87 21.61C38.44 24.17 36.37 26.14 33.78 26.43L32.77 26.54C24.88 27.41 16.92 27.41 9.03 26.54L8.02 26.43C5.43 26.14 3.35 24.17 2.93 21.61C2.13 16.86 2.13 12.02 2.93 7.27Z" />
			<path id="Path 12905" class="shp10" d="M26.17 12.84C27.31 13.6 27.31 15.28 26.17 16.03L20.05 20.12C18.77 20.97 17.07 20.06 17.07 18.53L17.07 10.35C17.07 8.82 18.77 7.91 20.05 8.76L26.17 12.84Z" />
		</g>
	</g>
</svg>